G04 #@! TF.GenerationSoftware,KiCad,Pcbnew,5.1.10-88a1d61d58~90~ubuntu20.04.1*
G04 #@! TF.CreationDate,2021-12-07T21:06:44-07:00*
G04 #@! TF.ProjectId,v1.0-Beta-WiFi-Nugget,76312e30-2d42-4657-9461-2d576946692d,rev?*
G04 #@! TF.SameCoordinates,Original*
G04 #@! TF.FileFunction,Paste,Bot*
G04 #@! TF.FilePolarity,Positive*
%FSLAX46Y46*%
G04 Gerber Fmt 4.6, Leading zero omitted, Abs format (unit mm)*
G04 Created by KiCad (PCBNEW 5.1.10-88a1d61d58~90~ubuntu20.04.1) date 2021-12-07 21:06:44*
%MOMM*%
%LPD*%
G01*
G04 APERTURE LIST*
%ADD10R,0.400000X2.000000*%
%ADD11R,1.000000X2.500000*%
%ADD12R,1.800000X1.000000*%
%ADD13R,0.400000X0.650000*%
%ADD14R,0.900000X1.200000*%
%ADD15R,1.900000X1.500000*%
%ADD16R,1.350000X0.400000*%
%ADD17R,0.900000X0.800000*%
%ADD18R,1.000000X1.450000*%
%ADD19R,1.500000X0.700000*%
%ADD20R,0.800000X1.000000*%
%ADD21R,1.060000X0.650000*%
%ADD22R,0.650000X1.060000*%
G04 APERTURE END LIST*
D10*
X10150000Y10160000D03*
X9450000Y10160000D03*
X8750000Y10160000D03*
X8050000Y10160000D03*
X7350000Y10160000D03*
X6650000Y10160000D03*
X5950000Y10160000D03*
X5250000Y10160000D03*
X4550000Y10160000D03*
X3850000Y10160000D03*
X3150000Y10160000D03*
X2450000Y10160000D03*
X1750000Y10160000D03*
X1050000Y10160000D03*
X350000Y10160000D03*
X-350000Y10160000D03*
X-1050000Y10160000D03*
X-1750000Y10160000D03*
X-2450000Y10160000D03*
X-3150000Y10160000D03*
X-3850000Y10160000D03*
X-4550000Y10160000D03*
X-5250000Y10160000D03*
X-5950000Y10160000D03*
X-6650000Y10160000D03*
X-7350000Y10160000D03*
X-8050000Y10160000D03*
X-8750000Y10160000D03*
X-9450000Y10160000D03*
X-10150000Y10160000D03*
G36*
G01*
X5539000Y-20465499D02*
X5539000Y-21765501D01*
G75*
G02*
X5289001Y-22015500I-249999J0D01*
G01*
X4588999Y-22015500D01*
G75*
G02*
X4339000Y-21765501I0J249999D01*
G01*
X4339000Y-20465499D01*
G75*
G02*
X4588999Y-20215500I249999J0D01*
G01*
X5289001Y-20215500D01*
G75*
G02*
X5539000Y-20465499I0J-249999D01*
G01*
G37*
G36*
G01*
X10139000Y-20465499D02*
X10139000Y-21765501D01*
G75*
G02*
X9889001Y-22015500I-249999J0D01*
G01*
X9188999Y-22015500D01*
G75*
G02*
X8939000Y-21765501I0J249999D01*
G01*
X8939000Y-20465499D01*
G75*
G02*
X9188999Y-20215500I249999J0D01*
G01*
X9889001Y-20215500D01*
G75*
G02*
X10139000Y-20465499I0J-249999D01*
G01*
G37*
G36*
G01*
X6539000Y-16615500D02*
X6539000Y-17865500D01*
G75*
G02*
X6389000Y-18015500I-150000J0D01*
G01*
X6089000Y-18015500D01*
G75*
G02*
X5939000Y-17865500I0J150000D01*
G01*
X5939000Y-16615500D01*
G75*
G02*
X6089000Y-16465500I150000J0D01*
G01*
X6389000Y-16465500D01*
G75*
G02*
X6539000Y-16615500I0J-150000D01*
G01*
G37*
G36*
G01*
X7539000Y-16615500D02*
X7539000Y-17865500D01*
G75*
G02*
X7389000Y-18015500I-150000J0D01*
G01*
X7089000Y-18015500D01*
G75*
G02*
X6939000Y-17865500I0J150000D01*
G01*
X6939000Y-16615500D01*
G75*
G02*
X7089000Y-16465500I150000J0D01*
G01*
X7389000Y-16465500D01*
G75*
G02*
X7539000Y-16615500I0J-150000D01*
G01*
G37*
G36*
G01*
X8539000Y-16615500D02*
X8539000Y-17865500D01*
G75*
G02*
X8389000Y-18015500I-150000J0D01*
G01*
X8089000Y-18015500D01*
G75*
G02*
X7939000Y-17865500I0J150000D01*
G01*
X7939000Y-16615500D01*
G75*
G02*
X8089000Y-16465500I150000J0D01*
G01*
X8389000Y-16465500D01*
G75*
G02*
X8539000Y-16615500I0J-150000D01*
G01*
G37*
G36*
G01*
X1654800Y8016700D02*
X2129800Y8016700D01*
G75*
G02*
X2367300Y7779200I0J-237500D01*
G01*
X2367300Y7279200D01*
G75*
G02*
X2129800Y7041700I-237500J0D01*
G01*
X1654800Y7041700D01*
G75*
G02*
X1417300Y7279200I0J237500D01*
G01*
X1417300Y7779200D01*
G75*
G02*
X1654800Y8016700I237500J0D01*
G01*
G37*
G36*
G01*
X1654800Y6191700D02*
X2129800Y6191700D01*
G75*
G02*
X2367300Y5954200I0J-237500D01*
G01*
X2367300Y5454200D01*
G75*
G02*
X2129800Y5216700I-237500J0D01*
G01*
X1654800Y5216700D01*
G75*
G02*
X1417300Y5454200I0J237500D01*
G01*
X1417300Y5954200D01*
G75*
G02*
X1654800Y6191700I237500J0D01*
G01*
G37*
G36*
G01*
X168900Y7991300D02*
X643900Y7991300D01*
G75*
G02*
X881400Y7753800I0J-237500D01*
G01*
X881400Y7253800D01*
G75*
G02*
X643900Y7016300I-237500J0D01*
G01*
X168900Y7016300D01*
G75*
G02*
X-68600Y7253800I0J237500D01*
G01*
X-68600Y7753800D01*
G75*
G02*
X168900Y7991300I237500J0D01*
G01*
G37*
G36*
G01*
X168900Y6166300D02*
X643900Y6166300D01*
G75*
G02*
X881400Y5928800I0J-237500D01*
G01*
X881400Y5428800D01*
G75*
G02*
X643900Y5191300I-237500J0D01*
G01*
X168900Y5191300D01*
G75*
G02*
X-68600Y5428800I0J237500D01*
G01*
X-68600Y5928800D01*
G75*
G02*
X168900Y6166300I237500J0D01*
G01*
G37*
G36*
G01*
X-10014299Y6182900D02*
X-10564301Y6182900D01*
G75*
G02*
X-10814300Y6432899I0J249999D01*
G01*
X-10814300Y6982901D01*
G75*
G02*
X-10564301Y7232900I249999J0D01*
G01*
X-10014299Y7232900D01*
G75*
G02*
X-9764300Y6982901I0J-249999D01*
G01*
X-9764300Y6432899D01*
G75*
G02*
X-10014299Y6182900I-249999J0D01*
G01*
G37*
G36*
G01*
X-8714299Y6182900D02*
X-9264301Y6182900D01*
G75*
G02*
X-9514300Y6432899I0J249999D01*
G01*
X-9514300Y6982901D01*
G75*
G02*
X-9264301Y7232900I249999J0D01*
G01*
X-8714299Y7232900D01*
G75*
G02*
X-8464300Y6982901I0J-249999D01*
G01*
X-8464300Y6432899D01*
G75*
G02*
X-8714299Y6182900I-249999J0D01*
G01*
G37*
G36*
G01*
X-10014299Y4882900D02*
X-10564301Y4882900D01*
G75*
G02*
X-10814300Y5132899I0J249999D01*
G01*
X-10814300Y5682901D01*
G75*
G02*
X-10564301Y5932900I249999J0D01*
G01*
X-10014299Y5932900D01*
G75*
G02*
X-9764300Y5682901I0J-249999D01*
G01*
X-9764300Y5132899D01*
G75*
G02*
X-10014299Y4882900I-249999J0D01*
G01*
G37*
G36*
G01*
X-8714299Y4882900D02*
X-9264301Y4882900D01*
G75*
G02*
X-9514300Y5132899I0J249999D01*
G01*
X-9514300Y5682901D01*
G75*
G02*
X-9264301Y5932900I249999J0D01*
G01*
X-8714299Y5932900D01*
G75*
G02*
X-8464300Y5682901I0J-249999D01*
G01*
X-8464300Y5132899D01*
G75*
G02*
X-8714299Y4882900I-249999J0D01*
G01*
G37*
G36*
G01*
X-7351800Y4682900D02*
X-8051800Y4682900D01*
G75*
G02*
X-8114300Y4745400I0J62500D01*
G01*
X-8114300Y4870400D01*
G75*
G02*
X-8051800Y4932900I62500J0D01*
G01*
X-7351800Y4932900D01*
G75*
G02*
X-7289300Y4870400I0J-62500D01*
G01*
X-7289300Y4745400D01*
G75*
G02*
X-7351800Y4682900I-62500J0D01*
G01*
G37*
G36*
G01*
X-7351800Y5182900D02*
X-8051800Y5182900D01*
G75*
G02*
X-8114300Y5245400I0J62500D01*
G01*
X-8114300Y5370400D01*
G75*
G02*
X-8051800Y5432900I62500J0D01*
G01*
X-7351800Y5432900D01*
G75*
G02*
X-7289300Y5370400I0J-62500D01*
G01*
X-7289300Y5245400D01*
G75*
G02*
X-7351800Y5182900I-62500J0D01*
G01*
G37*
G36*
G01*
X-7351800Y5682900D02*
X-8051800Y5682900D01*
G75*
G02*
X-8114300Y5745400I0J62500D01*
G01*
X-8114300Y5870400D01*
G75*
G02*
X-8051800Y5932900I62500J0D01*
G01*
X-7351800Y5932900D01*
G75*
G02*
X-7289300Y5870400I0J-62500D01*
G01*
X-7289300Y5745400D01*
G75*
G02*
X-7351800Y5682900I-62500J0D01*
G01*
G37*
G36*
G01*
X-7351800Y6182900D02*
X-8051800Y6182900D01*
G75*
G02*
X-8114300Y6245400I0J62500D01*
G01*
X-8114300Y6370400D01*
G75*
G02*
X-8051800Y6432900I62500J0D01*
G01*
X-7351800Y6432900D01*
G75*
G02*
X-7289300Y6370400I0J-62500D01*
G01*
X-7289300Y6245400D01*
G75*
G02*
X-7351800Y6182900I-62500J0D01*
G01*
G37*
G36*
G01*
X-7351800Y6682900D02*
X-8051800Y6682900D01*
G75*
G02*
X-8114300Y6745400I0J62500D01*
G01*
X-8114300Y6870400D01*
G75*
G02*
X-8051800Y6932900I62500J0D01*
G01*
X-7351800Y6932900D01*
G75*
G02*
X-7289300Y6870400I0J-62500D01*
G01*
X-7289300Y6745400D01*
G75*
G02*
X-7351800Y6682900I-62500J0D01*
G01*
G37*
G36*
G01*
X-7351800Y7182900D02*
X-8051800Y7182900D01*
G75*
G02*
X-8114300Y7245400I0J62500D01*
G01*
X-8114300Y7370400D01*
G75*
G02*
X-8051800Y7432900I62500J0D01*
G01*
X-7351800Y7432900D01*
G75*
G02*
X-7289300Y7370400I0J-62500D01*
G01*
X-7289300Y7245400D01*
G75*
G02*
X-7351800Y7182900I-62500J0D01*
G01*
G37*
G36*
G01*
X-8326800Y7582900D02*
X-8451800Y7582900D01*
G75*
G02*
X-8514300Y7645400I0J62500D01*
G01*
X-8514300Y8345400D01*
G75*
G02*
X-8451800Y8407900I62500J0D01*
G01*
X-8326800Y8407900D01*
G75*
G02*
X-8264300Y8345400I0J-62500D01*
G01*
X-8264300Y7645400D01*
G75*
G02*
X-8326800Y7582900I-62500J0D01*
G01*
G37*
G36*
G01*
X-8826800Y7582900D02*
X-8951800Y7582900D01*
G75*
G02*
X-9014300Y7645400I0J62500D01*
G01*
X-9014300Y8345400D01*
G75*
G02*
X-8951800Y8407900I62500J0D01*
G01*
X-8826800Y8407900D01*
G75*
G02*
X-8764300Y8345400I0J-62500D01*
G01*
X-8764300Y7645400D01*
G75*
G02*
X-8826800Y7582900I-62500J0D01*
G01*
G37*
G36*
G01*
X-9326800Y7582900D02*
X-9451800Y7582900D01*
G75*
G02*
X-9514300Y7645400I0J62500D01*
G01*
X-9514300Y8345400D01*
G75*
G02*
X-9451800Y8407900I62500J0D01*
G01*
X-9326800Y8407900D01*
G75*
G02*
X-9264300Y8345400I0J-62500D01*
G01*
X-9264300Y7645400D01*
G75*
G02*
X-9326800Y7582900I-62500J0D01*
G01*
G37*
G36*
G01*
X-9826800Y7582900D02*
X-9951800Y7582900D01*
G75*
G02*
X-10014300Y7645400I0J62500D01*
G01*
X-10014300Y8345400D01*
G75*
G02*
X-9951800Y8407900I62500J0D01*
G01*
X-9826800Y8407900D01*
G75*
G02*
X-9764300Y8345400I0J-62500D01*
G01*
X-9764300Y7645400D01*
G75*
G02*
X-9826800Y7582900I-62500J0D01*
G01*
G37*
G36*
G01*
X-10326800Y7582900D02*
X-10451800Y7582900D01*
G75*
G02*
X-10514300Y7645400I0J62500D01*
G01*
X-10514300Y8345400D01*
G75*
G02*
X-10451800Y8407900I62500J0D01*
G01*
X-10326800Y8407900D01*
G75*
G02*
X-10264300Y8345400I0J-62500D01*
G01*
X-10264300Y7645400D01*
G75*
G02*
X-10326800Y7582900I-62500J0D01*
G01*
G37*
G36*
G01*
X-10826800Y7582900D02*
X-10951800Y7582900D01*
G75*
G02*
X-11014300Y7645400I0J62500D01*
G01*
X-11014300Y8345400D01*
G75*
G02*
X-10951800Y8407900I62500J0D01*
G01*
X-10826800Y8407900D01*
G75*
G02*
X-10764300Y8345400I0J-62500D01*
G01*
X-10764300Y7645400D01*
G75*
G02*
X-10826800Y7582900I-62500J0D01*
G01*
G37*
G36*
G01*
X-11226800Y7182900D02*
X-11926800Y7182900D01*
G75*
G02*
X-11989300Y7245400I0J62500D01*
G01*
X-11989300Y7370400D01*
G75*
G02*
X-11926800Y7432900I62500J0D01*
G01*
X-11226800Y7432900D01*
G75*
G02*
X-11164300Y7370400I0J-62500D01*
G01*
X-11164300Y7245400D01*
G75*
G02*
X-11226800Y7182900I-62500J0D01*
G01*
G37*
G36*
G01*
X-11226800Y6682900D02*
X-11926800Y6682900D01*
G75*
G02*
X-11989300Y6745400I0J62500D01*
G01*
X-11989300Y6870400D01*
G75*
G02*
X-11926800Y6932900I62500J0D01*
G01*
X-11226800Y6932900D01*
G75*
G02*
X-11164300Y6870400I0J-62500D01*
G01*
X-11164300Y6745400D01*
G75*
G02*
X-11226800Y6682900I-62500J0D01*
G01*
G37*
G36*
G01*
X-11226800Y6182900D02*
X-11926800Y6182900D01*
G75*
G02*
X-11989300Y6245400I0J62500D01*
G01*
X-11989300Y6370400D01*
G75*
G02*
X-11926800Y6432900I62500J0D01*
G01*
X-11226800Y6432900D01*
G75*
G02*
X-11164300Y6370400I0J-62500D01*
G01*
X-11164300Y6245400D01*
G75*
G02*
X-11226800Y6182900I-62500J0D01*
G01*
G37*
G36*
G01*
X-11226800Y5682900D02*
X-11926800Y5682900D01*
G75*
G02*
X-11989300Y5745400I0J62500D01*
G01*
X-11989300Y5870400D01*
G75*
G02*
X-11926800Y5932900I62500J0D01*
G01*
X-11226800Y5932900D01*
G75*
G02*
X-11164300Y5870400I0J-62500D01*
G01*
X-11164300Y5745400D01*
G75*
G02*
X-11226800Y5682900I-62500J0D01*
G01*
G37*
G36*
G01*
X-11226800Y5182900D02*
X-11926800Y5182900D01*
G75*
G02*
X-11989300Y5245400I0J62500D01*
G01*
X-11989300Y5370400D01*
G75*
G02*
X-11926800Y5432900I62500J0D01*
G01*
X-11226800Y5432900D01*
G75*
G02*
X-11164300Y5370400I0J-62500D01*
G01*
X-11164300Y5245400D01*
G75*
G02*
X-11226800Y5182900I-62500J0D01*
G01*
G37*
G36*
G01*
X-11226800Y4682900D02*
X-11926800Y4682900D01*
G75*
G02*
X-11989300Y4745400I0J62500D01*
G01*
X-11989300Y4870400D01*
G75*
G02*
X-11926800Y4932900I62500J0D01*
G01*
X-11226800Y4932900D01*
G75*
G02*
X-11164300Y4870400I0J-62500D01*
G01*
X-11164300Y4745400D01*
G75*
G02*
X-11226800Y4682900I-62500J0D01*
G01*
G37*
G36*
G01*
X-10826800Y3707900D02*
X-10951800Y3707900D01*
G75*
G02*
X-11014300Y3770400I0J62500D01*
G01*
X-11014300Y4470400D01*
G75*
G02*
X-10951800Y4532900I62500J0D01*
G01*
X-10826800Y4532900D01*
G75*
G02*
X-10764300Y4470400I0J-62500D01*
G01*
X-10764300Y3770400D01*
G75*
G02*
X-10826800Y3707900I-62500J0D01*
G01*
G37*
G36*
G01*
X-10326800Y3707900D02*
X-10451800Y3707900D01*
G75*
G02*
X-10514300Y3770400I0J62500D01*
G01*
X-10514300Y4470400D01*
G75*
G02*
X-10451800Y4532900I62500J0D01*
G01*
X-10326800Y4532900D01*
G75*
G02*
X-10264300Y4470400I0J-62500D01*
G01*
X-10264300Y3770400D01*
G75*
G02*
X-10326800Y3707900I-62500J0D01*
G01*
G37*
G36*
G01*
X-9826800Y3707900D02*
X-9951800Y3707900D01*
G75*
G02*
X-10014300Y3770400I0J62500D01*
G01*
X-10014300Y4470400D01*
G75*
G02*
X-9951800Y4532900I62500J0D01*
G01*
X-9826800Y4532900D01*
G75*
G02*
X-9764300Y4470400I0J-62500D01*
G01*
X-9764300Y3770400D01*
G75*
G02*
X-9826800Y3707900I-62500J0D01*
G01*
G37*
G36*
G01*
X-9326800Y3707900D02*
X-9451800Y3707900D01*
G75*
G02*
X-9514300Y3770400I0J62500D01*
G01*
X-9514300Y4470400D01*
G75*
G02*
X-9451800Y4532900I62500J0D01*
G01*
X-9326800Y4532900D01*
G75*
G02*
X-9264300Y4470400I0J-62500D01*
G01*
X-9264300Y3770400D01*
G75*
G02*
X-9326800Y3707900I-62500J0D01*
G01*
G37*
G36*
G01*
X-8826800Y3707900D02*
X-8951800Y3707900D01*
G75*
G02*
X-9014300Y3770400I0J62500D01*
G01*
X-9014300Y4470400D01*
G75*
G02*
X-8951800Y4532900I62500J0D01*
G01*
X-8826800Y4532900D01*
G75*
G02*
X-8764300Y4470400I0J-62500D01*
G01*
X-8764300Y3770400D01*
G75*
G02*
X-8826800Y3707900I-62500J0D01*
G01*
G37*
G36*
G01*
X-8326800Y3707900D02*
X-8451800Y3707900D01*
G75*
G02*
X-8514300Y3770400I0J62500D01*
G01*
X-8514300Y4470400D01*
G75*
G02*
X-8451800Y4532900I62500J0D01*
G01*
X-8326800Y4532900D01*
G75*
G02*
X-8264300Y4470400I0J-62500D01*
G01*
X-8264300Y3770400D01*
G75*
G02*
X-8326800Y3707900I-62500J0D01*
G01*
G37*
D11*
X9215000Y-14013500D03*
X7215000Y-14013500D03*
X5215000Y-14013500D03*
X3215000Y-14013500D03*
X1215000Y-14013500D03*
X-785000Y-14013500D03*
X-2785000Y-14013500D03*
X-4785000Y-14013500D03*
D12*
X-6285000Y-11413500D03*
X-6285000Y-9413500D03*
X-6285000Y-7413500D03*
X-6285000Y-5413500D03*
X-6285000Y-3413500D03*
X-6285000Y-1413500D03*
D11*
X-4785000Y1186500D03*
X-2785000Y1186500D03*
X-785000Y1186500D03*
X1215000Y1186500D03*
X3215000Y1186500D03*
X5215000Y1186500D03*
X7215000Y1186500D03*
X9215000Y1186500D03*
D13*
X-1153400Y5539700D03*
X-2453400Y5539700D03*
X-1803400Y7439700D03*
X-1803400Y5539700D03*
X-2453400Y7439700D03*
X-1153400Y7439700D03*
G36*
G01*
X4677400Y6367900D02*
X5152400Y6367900D01*
G75*
G02*
X5389900Y6130400I0J-237500D01*
G01*
X5389900Y5530400D01*
G75*
G02*
X5152400Y5292900I-237500J0D01*
G01*
X4677400Y5292900D01*
G75*
G02*
X4439900Y5530400I0J237500D01*
G01*
X4439900Y6130400D01*
G75*
G02*
X4677400Y6367900I237500J0D01*
G01*
G37*
G36*
G01*
X4677400Y8092900D02*
X5152400Y8092900D01*
G75*
G02*
X5389900Y7855400I0J-237500D01*
G01*
X5389900Y7255400D01*
G75*
G02*
X5152400Y7017900I-237500J0D01*
G01*
X4677400Y7017900D01*
G75*
G02*
X4439900Y7255400I0J237500D01*
G01*
X4439900Y7855400D01*
G75*
G02*
X4677400Y8092900I237500J0D01*
G01*
G37*
G36*
G01*
X12924800Y7170600D02*
X12449800Y7170600D01*
G75*
G02*
X12212300Y7408100I0J237500D01*
G01*
X12212300Y7908100D01*
G75*
G02*
X12449800Y8145600I237500J0D01*
G01*
X12924800Y8145600D01*
G75*
G02*
X13162300Y7908100I0J-237500D01*
G01*
X13162300Y7408100D01*
G75*
G02*
X12924800Y7170600I-237500J0D01*
G01*
G37*
G36*
G01*
X12924800Y5345600D02*
X12449800Y5345600D01*
G75*
G02*
X12212300Y5583100I0J237500D01*
G01*
X12212300Y6083100D01*
G75*
G02*
X12449800Y6320600I237500J0D01*
G01*
X12924800Y6320600D01*
G75*
G02*
X13162300Y6083100I0J-237500D01*
G01*
X13162300Y5583100D01*
G75*
G02*
X12924800Y5345600I-237500J0D01*
G01*
G37*
G36*
G01*
X-11941800Y14623600D02*
X-12416800Y14623600D01*
G75*
G02*
X-12654300Y14861100I0J237500D01*
G01*
X-12654300Y15361100D01*
G75*
G02*
X-12416800Y15598600I237500J0D01*
G01*
X-11941800Y15598600D01*
G75*
G02*
X-11704300Y15361100I0J-237500D01*
G01*
X-11704300Y14861100D01*
G75*
G02*
X-11941800Y14623600I-237500J0D01*
G01*
G37*
G36*
G01*
X-11941800Y12798600D02*
X-12416800Y12798600D01*
G75*
G02*
X-12654300Y13036100I0J237500D01*
G01*
X-12654300Y13536100D01*
G75*
G02*
X-12416800Y13773600I237500J0D01*
G01*
X-11941800Y13773600D01*
G75*
G02*
X-11704300Y13536100I0J-237500D01*
G01*
X-11704300Y13036100D01*
G75*
G02*
X-11941800Y12798600I-237500J0D01*
G01*
G37*
G36*
G01*
X-15350500Y15624000D02*
X-14875500Y15624000D01*
G75*
G02*
X-14638000Y15386500I0J-237500D01*
G01*
X-14638000Y14786500D01*
G75*
G02*
X-14875500Y14549000I-237500J0D01*
G01*
X-15350500Y14549000D01*
G75*
G02*
X-15588000Y14786500I0J237500D01*
G01*
X-15588000Y15386500D01*
G75*
G02*
X-15350500Y15624000I237500J0D01*
G01*
G37*
G36*
G01*
X-15350500Y13899000D02*
X-14875500Y13899000D01*
G75*
G02*
X-14638000Y13661500I0J-237500D01*
G01*
X-14638000Y13061500D01*
G75*
G02*
X-14875500Y12824000I-237500J0D01*
G01*
X-15350500Y12824000D01*
G75*
G02*
X-15588000Y13061500I0J237500D01*
G01*
X-15588000Y13661500D01*
G75*
G02*
X-15350500Y13899000I237500J0D01*
G01*
G37*
G36*
G01*
X-5720900Y3958600D02*
X-5720900Y3483600D01*
G75*
G02*
X-5958400Y3246100I-237500J0D01*
G01*
X-6458400Y3246100D01*
G75*
G02*
X-6695900Y3483600I0J237500D01*
G01*
X-6695900Y3958600D01*
G75*
G02*
X-6458400Y4196100I237500J0D01*
G01*
X-5958400Y4196100D01*
G75*
G02*
X-5720900Y3958600I0J-237500D01*
G01*
G37*
G36*
G01*
X-3895900Y3958600D02*
X-3895900Y3483600D01*
G75*
G02*
X-4133400Y3246100I-237500J0D01*
G01*
X-4633400Y3246100D01*
G75*
G02*
X-4870900Y3483600I0J237500D01*
G01*
X-4870900Y3958600D01*
G75*
G02*
X-4633400Y4196100I237500J0D01*
G01*
X-4133400Y4196100D01*
G75*
G02*
X-3895900Y3958600I0J-237500D01*
G01*
G37*
G36*
G01*
X-6695900Y5033000D02*
X-6695900Y5508000D01*
G75*
G02*
X-6458400Y5745500I237500J0D01*
G01*
X-5858400Y5745500D01*
G75*
G02*
X-5620900Y5508000I0J-237500D01*
G01*
X-5620900Y5033000D01*
G75*
G02*
X-5858400Y4795500I-237500J0D01*
G01*
X-6458400Y4795500D01*
G75*
G02*
X-6695900Y5033000I0J237500D01*
G01*
G37*
G36*
G01*
X-4970900Y5033000D02*
X-4970900Y5508000D01*
G75*
G02*
X-4733400Y5745500I237500J0D01*
G01*
X-4133400Y5745500D01*
G75*
G02*
X-3895900Y5508000I0J-237500D01*
G01*
X-3895900Y5033000D01*
G75*
G02*
X-4133400Y4795500I-237500J0D01*
G01*
X-4733400Y4795500D01*
G75*
G02*
X-4970900Y5033000I0J237500D01*
G01*
G37*
G36*
G01*
X-12030700Y-259200D02*
X-12505700Y-259200D01*
G75*
G02*
X-12743200Y-21700I0J237500D01*
G01*
X-12743200Y578300D01*
G75*
G02*
X-12505700Y815800I237500J0D01*
G01*
X-12030700Y815800D01*
G75*
G02*
X-11793200Y578300I0J-237500D01*
G01*
X-11793200Y-21700D01*
G75*
G02*
X-12030700Y-259200I-237500J0D01*
G01*
G37*
G36*
G01*
X-12030700Y-1984200D02*
X-12505700Y-1984200D01*
G75*
G02*
X-12743200Y-1746700I0J237500D01*
G01*
X-12743200Y-1146700D01*
G75*
G02*
X-12505700Y-909200I237500J0D01*
G01*
X-12030700Y-909200D01*
G75*
G02*
X-11793200Y-1146700I0J-237500D01*
G01*
X-11793200Y-1746700D01*
G75*
G02*
X-12030700Y-1984200I-237500J0D01*
G01*
G37*
G36*
G01*
X-11229800Y-7222500D02*
X-11229800Y-6747500D01*
G75*
G02*
X-10992300Y-6510000I237500J0D01*
G01*
X-10392300Y-6510000D01*
G75*
G02*
X-10154800Y-6747500I0J-237500D01*
G01*
X-10154800Y-7222500D01*
G75*
G02*
X-10392300Y-7460000I-237500J0D01*
G01*
X-10992300Y-7460000D01*
G75*
G02*
X-11229800Y-7222500I0J237500D01*
G01*
G37*
G36*
G01*
X-9504800Y-7222500D02*
X-9504800Y-6747500D01*
G75*
G02*
X-9267300Y-6510000I237500J0D01*
G01*
X-8667300Y-6510000D01*
G75*
G02*
X-8429800Y-6747500I0J-237500D01*
G01*
X-8429800Y-7222500D01*
G75*
G02*
X-8667300Y-7460000I-237500J0D01*
G01*
X-9267300Y-7460000D01*
G75*
G02*
X-9504800Y-7222500I0J237500D01*
G01*
G37*
G36*
G01*
X10875000Y8143700D02*
X11350000Y8143700D01*
G75*
G02*
X11587500Y7906200I0J-237500D01*
G01*
X11587500Y7331200D01*
G75*
G02*
X11350000Y7093700I-237500J0D01*
G01*
X10875000Y7093700D01*
G75*
G02*
X10637500Y7331200I0J237500D01*
G01*
X10637500Y7906200D01*
G75*
G02*
X10875000Y8143700I237500J0D01*
G01*
G37*
G36*
G01*
X10875000Y6393700D02*
X11350000Y6393700D01*
G75*
G02*
X11587500Y6156200I0J-237500D01*
G01*
X11587500Y5581200D01*
G75*
G02*
X11350000Y5343700I-237500J0D01*
G01*
X10875000Y5343700D01*
G75*
G02*
X10637500Y5581200I0J237500D01*
G01*
X10637500Y6156200D01*
G75*
G02*
X10875000Y6393700I237500J0D01*
G01*
G37*
G36*
G01*
X-16841600Y-14927200D02*
X-13841600Y-14927200D01*
G75*
G02*
X-13591600Y-15177200I0J-250000D01*
G01*
X-13591600Y-15677200D01*
G75*
G02*
X-13841600Y-15927200I-250000J0D01*
G01*
X-16841600Y-15927200D01*
G75*
G02*
X-17091600Y-15677200I0J250000D01*
G01*
X-17091600Y-15177200D01*
G75*
G02*
X-16841600Y-14927200I250000J0D01*
G01*
G37*
G36*
G01*
X-16841600Y-12927200D02*
X-13841600Y-12927200D01*
G75*
G02*
X-13591600Y-13177200I0J-250000D01*
G01*
X-13591600Y-13677200D01*
G75*
G02*
X-13841600Y-13927200I-250000J0D01*
G01*
X-16841600Y-13927200D01*
G75*
G02*
X-17091600Y-13677200I0J250000D01*
G01*
X-17091600Y-13177200D01*
G75*
G02*
X-16841600Y-12927200I250000J0D01*
G01*
G37*
G36*
G01*
X-8404400Y-8296900D02*
X-8404400Y-8771900D01*
G75*
G02*
X-8641900Y-9009400I-237500J0D01*
G01*
X-9141900Y-9009400D01*
G75*
G02*
X-9379400Y-8771900I0J237500D01*
G01*
X-9379400Y-8296900D01*
G75*
G02*
X-9141900Y-8059400I237500J0D01*
G01*
X-8641900Y-8059400D01*
G75*
G02*
X-8404400Y-8296900I0J-237500D01*
G01*
G37*
G36*
G01*
X-10229400Y-8296900D02*
X-10229400Y-8771900D01*
G75*
G02*
X-10466900Y-9009400I-237500J0D01*
G01*
X-10966900Y-9009400D01*
G75*
G02*
X-11204400Y-8771900I0J237500D01*
G01*
X-11204400Y-8296900D01*
G75*
G02*
X-10966900Y-8059400I237500J0D01*
G01*
X-10466900Y-8059400D01*
G75*
G02*
X-10229400Y-8296900I0J-237500D01*
G01*
G37*
G36*
G01*
X11554000Y3509000D02*
X11554000Y3984000D01*
G75*
G02*
X11791500Y4221500I237500J0D01*
G01*
X12291500Y4221500D01*
G75*
G02*
X12529000Y3984000I0J-237500D01*
G01*
X12529000Y3509000D01*
G75*
G02*
X12291500Y3271500I-237500J0D01*
G01*
X11791500Y3271500D01*
G75*
G02*
X11554000Y3509000I0J237500D01*
G01*
G37*
G36*
G01*
X13379000Y3509000D02*
X13379000Y3984000D01*
G75*
G02*
X13616500Y4221500I237500J0D01*
G01*
X14116500Y4221500D01*
G75*
G02*
X14354000Y3984000I0J-237500D01*
G01*
X14354000Y3509000D01*
G75*
G02*
X14116500Y3271500I-237500J0D01*
G01*
X13616500Y3271500D01*
G75*
G02*
X13379000Y3509000I0J237500D01*
G01*
G37*
G36*
G01*
X-10201900Y-10560500D02*
X-10676900Y-10560500D01*
G75*
G02*
X-10914400Y-10323000I0J237500D01*
G01*
X-10914400Y-9823000D01*
G75*
G02*
X-10676900Y-9585500I237500J0D01*
G01*
X-10201900Y-9585500D01*
G75*
G02*
X-9964400Y-9823000I0J-237500D01*
G01*
X-9964400Y-10323000D01*
G75*
G02*
X-10201900Y-10560500I-237500J0D01*
G01*
G37*
G36*
G01*
X-10201900Y-12385500D02*
X-10676900Y-12385500D01*
G75*
G02*
X-10914400Y-12148000I0J237500D01*
G01*
X-10914400Y-11648000D01*
G75*
G02*
X-10676900Y-11410500I237500J0D01*
G01*
X-10201900Y-11410500D01*
G75*
G02*
X-9964400Y-11648000I0J-237500D01*
G01*
X-9964400Y-12148000D01*
G75*
G02*
X-10201900Y-12385500I-237500J0D01*
G01*
G37*
G36*
G01*
X14304000Y13835500D02*
X14779000Y13835500D01*
G75*
G02*
X15016500Y13598000I0J-237500D01*
G01*
X15016500Y12998000D01*
G75*
G02*
X14779000Y12760500I-237500J0D01*
G01*
X14304000Y12760500D01*
G75*
G02*
X14066500Y12998000I0J237500D01*
G01*
X14066500Y13598000D01*
G75*
G02*
X14304000Y13835500I237500J0D01*
G01*
G37*
G36*
G01*
X14304000Y15560500D02*
X14779000Y15560500D01*
G75*
G02*
X15016500Y15323000I0J-237500D01*
G01*
X15016500Y14723000D01*
G75*
G02*
X14779000Y14485500I-237500J0D01*
G01*
X14304000Y14485500D01*
G75*
G02*
X14066500Y14723000I0J237500D01*
G01*
X14066500Y15323000D01*
G75*
G02*
X14304000Y15560500I237500J0D01*
G01*
G37*
G36*
G01*
X13140700Y12773200D02*
X12665700Y12773200D01*
G75*
G02*
X12428200Y13010700I0J237500D01*
G01*
X12428200Y13610700D01*
G75*
G02*
X12665700Y13848200I237500J0D01*
G01*
X13140700Y13848200D01*
G75*
G02*
X13378200Y13610700I0J-237500D01*
G01*
X13378200Y13010700D01*
G75*
G02*
X13140700Y12773200I-237500J0D01*
G01*
G37*
G36*
G01*
X13140700Y14498200D02*
X12665700Y14498200D01*
G75*
G02*
X12428200Y14735700I0J237500D01*
G01*
X12428200Y15335700D01*
G75*
G02*
X12665700Y15573200I237500J0D01*
G01*
X13140700Y15573200D01*
G75*
G02*
X13378200Y15335700I0J-237500D01*
G01*
X13378200Y14735700D01*
G75*
G02*
X13140700Y14498200I-237500J0D01*
G01*
G37*
G36*
G01*
X8200400Y5292900D02*
X7725400Y5292900D01*
G75*
G02*
X7487900Y5530400I0J237500D01*
G01*
X7487900Y6130400D01*
G75*
G02*
X7725400Y6367900I237500J0D01*
G01*
X8200400Y6367900D01*
G75*
G02*
X8437900Y6130400I0J-237500D01*
G01*
X8437900Y5530400D01*
G75*
G02*
X8200400Y5292900I-237500J0D01*
G01*
G37*
G36*
G01*
X8200400Y7017900D02*
X7725400Y7017900D01*
G75*
G02*
X7487900Y7255400I0J237500D01*
G01*
X7487900Y7855400D01*
G75*
G02*
X7725400Y8092900I237500J0D01*
G01*
X8200400Y8092900D01*
G75*
G02*
X8437900Y7855400I0J-237500D01*
G01*
X8437900Y7255400D01*
G75*
G02*
X8200400Y7017900I-237500J0D01*
G01*
G37*
G36*
G01*
X-13402300Y12798600D02*
X-13877300Y12798600D01*
G75*
G02*
X-14114800Y13036100I0J237500D01*
G01*
X-14114800Y13636100D01*
G75*
G02*
X-13877300Y13873600I237500J0D01*
G01*
X-13402300Y13873600D01*
G75*
G02*
X-13164800Y13636100I0J-237500D01*
G01*
X-13164800Y13036100D01*
G75*
G02*
X-13402300Y12798600I-237500J0D01*
G01*
G37*
G36*
G01*
X-13402300Y14523600D02*
X-13877300Y14523600D01*
G75*
G02*
X-14114800Y14761100I0J237500D01*
G01*
X-14114800Y15361100D01*
G75*
G02*
X-13877300Y15598600I237500J0D01*
G01*
X-13402300Y15598600D01*
G75*
G02*
X-13164800Y15361100I0J-237500D01*
G01*
X-13164800Y14761100D01*
G75*
G02*
X-13402300Y14523600I-237500J0D01*
G01*
G37*
G36*
G01*
X16430000Y14485500D02*
X15955000Y14485500D01*
G75*
G02*
X15717500Y14723000I0J237500D01*
G01*
X15717500Y15323000D01*
G75*
G02*
X15955000Y15560500I237500J0D01*
G01*
X16430000Y15560500D01*
G75*
G02*
X16667500Y15323000I0J-237500D01*
G01*
X16667500Y14723000D01*
G75*
G02*
X16430000Y14485500I-237500J0D01*
G01*
G37*
G36*
G01*
X16430000Y12760500D02*
X15955000Y12760500D01*
G75*
G02*
X15717500Y12998000I0J237500D01*
G01*
X15717500Y13598000D01*
G75*
G02*
X15955000Y13835500I237500J0D01*
G01*
X16430000Y13835500D01*
G75*
G02*
X16667500Y13598000I0J-237500D01*
G01*
X16667500Y12998000D01*
G75*
G02*
X16430000Y12760500I-237500J0D01*
G01*
G37*
G36*
G01*
X3140700Y8054800D02*
X3615700Y8054800D01*
G75*
G02*
X3853200Y7817300I0J-237500D01*
G01*
X3853200Y7217300D01*
G75*
G02*
X3615700Y6979800I-237500J0D01*
G01*
X3140700Y6979800D01*
G75*
G02*
X2903200Y7217300I0J237500D01*
G01*
X2903200Y7817300D01*
G75*
G02*
X3140700Y8054800I237500J0D01*
G01*
G37*
G36*
G01*
X3140700Y6329800D02*
X3615700Y6329800D01*
G75*
G02*
X3853200Y6092300I0J-237500D01*
G01*
X3853200Y5492300D01*
G75*
G02*
X3615700Y5254800I-237500J0D01*
G01*
X3140700Y5254800D01*
G75*
G02*
X2903200Y5492300I0J237500D01*
G01*
X2903200Y6092300D01*
G75*
G02*
X3140700Y6329800I237500J0D01*
G01*
G37*
D14*
X-13717000Y1371600D03*
X-17017000Y1371600D03*
D15*
X-16541000Y6000000D03*
D16*
X-13841000Y7000000D03*
X-13841000Y7650000D03*
X-13841000Y8300000D03*
X-13841000Y5700000D03*
X-13841000Y6350000D03*
D15*
X-16541000Y8000000D03*
D17*
X-10423400Y-5217200D03*
X-10423400Y-3317200D03*
X-8423400Y-4267200D03*
G36*
G01*
X1480000Y3945900D02*
X1480000Y3470900D01*
G75*
G02*
X1242500Y3233400I-237500J0D01*
G01*
X742500Y3233400D01*
G75*
G02*
X505000Y3470900I0J237500D01*
G01*
X505000Y3945900D01*
G75*
G02*
X742500Y4183400I237500J0D01*
G01*
X1242500Y4183400D01*
G75*
G02*
X1480000Y3945900I0J-237500D01*
G01*
G37*
G36*
G01*
X3305000Y3945900D02*
X3305000Y3470900D01*
G75*
G02*
X3067500Y3233400I-237500J0D01*
G01*
X2567500Y3233400D01*
G75*
G02*
X2330000Y3470900I0J237500D01*
G01*
X2330000Y3945900D01*
G75*
G02*
X2567500Y4183400I237500J0D01*
G01*
X3067500Y4183400D01*
G75*
G02*
X3305000Y3945900I0J-237500D01*
G01*
G37*
G36*
G01*
X6188700Y6267900D02*
X6663700Y6267900D01*
G75*
G02*
X6901200Y6030400I0J-237500D01*
G01*
X6901200Y5530400D01*
G75*
G02*
X6663700Y5292900I-237500J0D01*
G01*
X6188700Y5292900D01*
G75*
G02*
X5951200Y5530400I0J237500D01*
G01*
X5951200Y6030400D01*
G75*
G02*
X6188700Y6267900I237500J0D01*
G01*
G37*
G36*
G01*
X6188700Y8092900D02*
X6663700Y8092900D01*
G75*
G02*
X6901200Y7855400I0J-237500D01*
G01*
X6901200Y7355400D01*
G75*
G02*
X6663700Y7117900I-237500J0D01*
G01*
X6188700Y7117900D01*
G75*
G02*
X5951200Y7355400I0J237500D01*
G01*
X5951200Y7855400D01*
G75*
G02*
X6188700Y8092900I237500J0D01*
G01*
G37*
G36*
G01*
X-3089100Y3470900D02*
X-3089100Y3945900D01*
G75*
G02*
X-2851600Y4183400I237500J0D01*
G01*
X-2351600Y4183400D01*
G75*
G02*
X-2114100Y3945900I0J-237500D01*
G01*
X-2114100Y3470900D01*
G75*
G02*
X-2351600Y3233400I-237500J0D01*
G01*
X-2851600Y3233400D01*
G75*
G02*
X-3089100Y3470900I0J237500D01*
G01*
G37*
G36*
G01*
X-1264100Y3470900D02*
X-1264100Y3945900D01*
G75*
G02*
X-1026600Y4183400I237500J0D01*
G01*
X-526600Y4183400D01*
G75*
G02*
X-289100Y3945900I0J-237500D01*
G01*
X-289100Y3470900D01*
G75*
G02*
X-526600Y3233400I-237500J0D01*
G01*
X-1026600Y3233400D01*
G75*
G02*
X-1264100Y3470900I0J237500D01*
G01*
G37*
G36*
G01*
X9762500Y5345600D02*
X9287500Y5345600D01*
G75*
G02*
X9050000Y5583100I0J237500D01*
G01*
X9050000Y6083100D01*
G75*
G02*
X9287500Y6320600I237500J0D01*
G01*
X9762500Y6320600D01*
G75*
G02*
X10000000Y6083100I0J-237500D01*
G01*
X10000000Y5583100D01*
G75*
G02*
X9762500Y5345600I-237500J0D01*
G01*
G37*
G36*
G01*
X9762500Y7170600D02*
X9287500Y7170600D01*
G75*
G02*
X9050000Y7408100I0J237500D01*
G01*
X9050000Y7908100D01*
G75*
G02*
X9287500Y8145600I237500J0D01*
G01*
X9762500Y8145600D01*
G75*
G02*
X10000000Y7908100I0J-237500D01*
G01*
X10000000Y7408100D01*
G75*
G02*
X9762500Y7170600I-237500J0D01*
G01*
G37*
G36*
G01*
X-12454900Y-2918000D02*
X-11979900Y-2918000D01*
G75*
G02*
X-11742400Y-3155500I0J-237500D01*
G01*
X-11742400Y-3655500D01*
G75*
G02*
X-11979900Y-3893000I-237500J0D01*
G01*
X-12454900Y-3893000D01*
G75*
G02*
X-12692400Y-3655500I0J237500D01*
G01*
X-12692400Y-3155500D01*
G75*
G02*
X-12454900Y-2918000I237500J0D01*
G01*
G37*
G36*
G01*
X-12454900Y-4743000D02*
X-11979900Y-4743000D01*
G75*
G02*
X-11742400Y-4980500I0J-237500D01*
G01*
X-11742400Y-5480500D01*
G75*
G02*
X-11979900Y-5718000I-237500J0D01*
G01*
X-12454900Y-5718000D01*
G75*
G02*
X-12692400Y-5480500I0J237500D01*
G01*
X-12692400Y-4980500D01*
G75*
G02*
X-12454900Y-4743000I237500J0D01*
G01*
G37*
G36*
G01*
X-16347900Y-2548900D02*
X-16347900Y-2073900D01*
G75*
G02*
X-16110400Y-1836400I237500J0D01*
G01*
X-15610400Y-1836400D01*
G75*
G02*
X-15372900Y-2073900I0J-237500D01*
G01*
X-15372900Y-2548900D01*
G75*
G02*
X-15610400Y-2786400I-237500J0D01*
G01*
X-16110400Y-2786400D01*
G75*
G02*
X-16347900Y-2548900I0J237500D01*
G01*
G37*
G36*
G01*
X-14522900Y-2548900D02*
X-14522900Y-2073900D01*
G75*
G02*
X-14285400Y-1836400I237500J0D01*
G01*
X-13785400Y-1836400D01*
G75*
G02*
X-13547900Y-2073900I0J-237500D01*
G01*
X-13547900Y-2548900D01*
G75*
G02*
X-13785400Y-2786400I-237500J0D01*
G01*
X-14285400Y-2786400D01*
G75*
G02*
X-14522900Y-2548900I0J237500D01*
G01*
G37*
G36*
G01*
X-11814800Y-10598600D02*
X-12289800Y-10598600D01*
G75*
G02*
X-12527300Y-10361100I0J237500D01*
G01*
X-12527300Y-9861100D01*
G75*
G02*
X-12289800Y-9623600I237500J0D01*
G01*
X-11814800Y-9623600D01*
G75*
G02*
X-11577300Y-9861100I0J-237500D01*
G01*
X-11577300Y-10361100D01*
G75*
G02*
X-11814800Y-10598600I-237500J0D01*
G01*
G37*
G36*
G01*
X-11814800Y-12423600D02*
X-12289800Y-12423600D01*
G75*
G02*
X-12527300Y-12186100I0J237500D01*
G01*
X-12527300Y-11686100D01*
G75*
G02*
X-12289800Y-11448600I237500J0D01*
G01*
X-11814800Y-11448600D01*
G75*
G02*
X-11577300Y-11686100I0J-237500D01*
G01*
X-11577300Y-12186100D01*
G75*
G02*
X-11814800Y-12423600I-237500J0D01*
G01*
G37*
D18*
X15304400Y10347400D03*
X15304400Y5197400D03*
X17004400Y5197400D03*
X17004400Y10347400D03*
D19*
X-14572000Y-9870000D03*
X-14572000Y-6870000D03*
X-14572000Y-5370000D03*
D20*
X-17432000Y-11270000D03*
X-17432000Y-3970000D03*
X-15222000Y-3970000D03*
X-15222000Y-11270000D03*
D21*
X-8552000Y-15351800D03*
X-8552000Y-13451800D03*
X-10752000Y-13451800D03*
X-10752000Y-14401800D03*
X-10752000Y-15351800D03*
D22*
X-8511500Y-1557200D03*
X-9461500Y-1557200D03*
X-10411500Y-1557200D03*
X-10411500Y642800D03*
X-8511500Y642800D03*
G36*
G01*
X-16360600Y-961400D02*
X-16360600Y-486400D01*
G75*
G02*
X-16123100Y-248900I237500J0D01*
G01*
X-15548100Y-248900D01*
G75*
G02*
X-15310600Y-486400I0J-237500D01*
G01*
X-15310600Y-961400D01*
G75*
G02*
X-15548100Y-1198900I-237500J0D01*
G01*
X-16123100Y-1198900D01*
G75*
G02*
X-16360600Y-961400I0J237500D01*
G01*
G37*
G36*
G01*
X-14610600Y-961400D02*
X-14610600Y-486400D01*
G75*
G02*
X-14373100Y-248900I237500J0D01*
G01*
X-13798100Y-248900D01*
G75*
G02*
X-13560600Y-486400I0J-237500D01*
G01*
X-13560600Y-961400D01*
G75*
G02*
X-13798100Y-1198900I-237500J0D01*
G01*
X-14373100Y-1198900D01*
G75*
G02*
X-14610600Y-961400I0J237500D01*
G01*
G37*
G36*
G01*
X-9697600Y2434600D02*
X-9697600Y1959600D01*
G75*
G02*
X-9935100Y1722100I-237500J0D01*
G01*
X-10535100Y1722100D01*
G75*
G02*
X-10772600Y1959600I0J237500D01*
G01*
X-10772600Y2434600D01*
G75*
G02*
X-10535100Y2672100I237500J0D01*
G01*
X-9935100Y2672100D01*
G75*
G02*
X-9697600Y2434600I0J-237500D01*
G01*
G37*
G36*
G01*
X-7972600Y2434600D02*
X-7972600Y1959600D01*
G75*
G02*
X-8210100Y1722100I-237500J0D01*
G01*
X-8810100Y1722100D01*
G75*
G02*
X-9047600Y1959600I0J237500D01*
G01*
X-9047600Y2434600D01*
G75*
G02*
X-8810100Y2672100I237500J0D01*
G01*
X-8210100Y2672100D01*
G75*
G02*
X-7972600Y2434600I0J-237500D01*
G01*
G37*
G36*
G01*
X8846000Y3971300D02*
X8846000Y3496300D01*
G75*
G02*
X8608500Y3258800I-237500J0D01*
G01*
X8108500Y3258800D01*
G75*
G02*
X7871000Y3496300I0J237500D01*
G01*
X7871000Y3971300D01*
G75*
G02*
X8108500Y4208800I237500J0D01*
G01*
X8608500Y4208800D01*
G75*
G02*
X8846000Y3971300I0J-237500D01*
G01*
G37*
G36*
G01*
X10671000Y3971300D02*
X10671000Y3496300D01*
G75*
G02*
X10433500Y3258800I-237500J0D01*
G01*
X9933500Y3258800D01*
G75*
G02*
X9696000Y3496300I0J237500D01*
G01*
X9696000Y3971300D01*
G75*
G02*
X9933500Y4208800I237500J0D01*
G01*
X10433500Y4208800D01*
G75*
G02*
X10671000Y3971300I0J-237500D01*
G01*
G37*
G36*
G01*
X4213400Y3470900D02*
X4213400Y3945900D01*
G75*
G02*
X4450900Y4183400I237500J0D01*
G01*
X4950900Y4183400D01*
G75*
G02*
X5188400Y3945900I0J-237500D01*
G01*
X5188400Y3470900D01*
G75*
G02*
X4950900Y3233400I-237500J0D01*
G01*
X4450900Y3233400D01*
G75*
G02*
X4213400Y3470900I0J237500D01*
G01*
G37*
G36*
G01*
X6038400Y3470900D02*
X6038400Y3945900D01*
G75*
G02*
X6275900Y4183400I237500J0D01*
G01*
X6775900Y4183400D01*
G75*
G02*
X7013400Y3945900I0J-237500D01*
G01*
X7013400Y3470900D01*
G75*
G02*
X6775900Y3233400I-237500J0D01*
G01*
X6275900Y3233400D01*
G75*
G02*
X6038400Y3470900I0J237500D01*
G01*
G37*
G36*
G01*
X-8677900Y-12385500D02*
X-9152900Y-12385500D01*
G75*
G02*
X-9390400Y-12148000I0J237500D01*
G01*
X-9390400Y-11548000D01*
G75*
G02*
X-9152900Y-11310500I237500J0D01*
G01*
X-8677900Y-11310500D01*
G75*
G02*
X-8440400Y-11548000I0J-237500D01*
G01*
X-8440400Y-12148000D01*
G75*
G02*
X-8677900Y-12385500I-237500J0D01*
G01*
G37*
G36*
G01*
X-8677900Y-10660500D02*
X-9152900Y-10660500D01*
G75*
G02*
X-9390400Y-10423000I0J237500D01*
G01*
X-9390400Y-9823000D01*
G75*
G02*
X-9152900Y-9585500I237500J0D01*
G01*
X-8677900Y-9585500D01*
G75*
G02*
X-8440400Y-9823000I0J-237500D01*
G01*
X-8440400Y-10423000D01*
G75*
G02*
X-8677900Y-10660500I-237500J0D01*
G01*
G37*
G36*
G01*
X-16861800Y15624000D02*
X-16386800Y15624000D01*
G75*
G02*
X-16149300Y15386500I0J-237500D01*
G01*
X-16149300Y14786500D01*
G75*
G02*
X-16386800Y14549000I-237500J0D01*
G01*
X-16861800Y14549000D01*
G75*
G02*
X-17099300Y14786500I0J237500D01*
G01*
X-17099300Y15386500D01*
G75*
G02*
X-16861800Y15624000I237500J0D01*
G01*
G37*
G36*
G01*
X-16861800Y13899000D02*
X-16386800Y13899000D01*
G75*
G02*
X-16149300Y13661500I0J-237500D01*
G01*
X-16149300Y13061500D01*
G75*
G02*
X-16386800Y12824000I-237500J0D01*
G01*
X-16861800Y12824000D01*
G75*
G02*
X-17099300Y13061500I0J237500D01*
G01*
X-17099300Y13661500D01*
G75*
G02*
X-16861800Y13899000I237500J0D01*
G01*
G37*
M02*
