M48
INCH,TZ
T1C0.0079
T2C0.0236
T3C0.0335
T4C0.0866
%
G90
G05
T1
X-5895Y-925
X-5175Y110
X-5100Y2750
X-5000Y-6075
X-4960Y2500
X-4950Y3025
X-4880Y2287
X-4775Y-6830
X-4745Y-3425
X-4700Y3125
X-4690Y3615
X-4690Y3367
X-4550Y800
X-4450Y539
X-4287Y1310
X-3893Y1305
X-3825Y-4350
X-3815Y-6044
X-3697Y1305
X-3650Y-2275
X-3625Y-1050
X-3500Y1375
X-2925Y-5670
X-2845Y1465
X-2775Y25
X-2375Y2720
X-2215Y2545
X-1825Y3075
X-1240Y4645
X-1096Y-315
X-1096Y-6260
X-1015Y2490
X-985Y3367
X-689Y4640
X-309Y-315
X-200Y2710
X-138Y5375
X50Y4600
X50Y1125
X450Y2565
X465Y1940
X478Y-320
X790Y1755
X1035Y-325
X1130Y1945
X1360Y-4535
X1516Y4625
X1745Y-325
X2053Y-325
X2507Y-4057
X2725Y-3675
X2841Y-4700
X3450Y2650
X3628Y-325
X3950Y-1150
X4125Y4825
X4140Y-6135
X5050Y4074
X5325Y1925
T3
X-5449Y3740
X-5449Y1772
T4
X-4528Y8071
X4528Y8071
T2
G00X-6650Y4134
M15
G01X-6374Y4134
M16
G05
G00X-6374Y1378
M15
G01X-6650Y1378
M16
G05
T0
M30
