G04 #@! TF.GenerationSoftware,KiCad,Pcbnew,5.1.10-88a1d61d58~90~ubuntu20.04.1*
G04 #@! TF.CreationDate,2021-12-07T21:06:44-07:00*
G04 #@! TF.ProjectId,v1.0-Beta-WiFi-Nugget,76312e30-2d42-4657-9461-2d576946692d,rev?*
G04 #@! TF.SameCoordinates,Original*
G04 #@! TF.FileFunction,Soldermask,Top*
G04 #@! TF.FilePolarity,Negative*
%FSLAX46Y46*%
G04 Gerber Fmt 4.6, Leading zero omitted, Abs format (unit mm)*
G04 Created by KiCad (PCBNEW 5.1.10-88a1d61d58~90~ubuntu20.04.1) date 2021-12-07 21:06:44*
%MOMM*%
%LPD*%
G01*
G04 APERTURE LIST*
%ADD10C,0.010000*%
%ADD11R,1.500000X1.000000*%
%ADD12R,2.180000X1.600000*%
%ADD13C,3.800000*%
%ADD14O,1.900000X1.200000*%
%ADD15C,1.450000*%
%ADD16C,0.750000*%
%ADD17C,0.900000*%
G04 APERTURE END LIST*
D10*
G36*
X-10181166Y-20911610D02*
G01*
X-10181582Y-21002090D01*
X-10184325Y-21058360D01*
X-10191639Y-21088545D01*
X-10205769Y-21100769D01*
X-10228958Y-21103155D01*
X-10234083Y-21103167D01*
X-10274364Y-21111909D01*
X-10286776Y-21146331D01*
X-10287000Y-21156083D01*
X-10293834Y-21193901D01*
X-10322886Y-21207736D01*
X-10350500Y-21209000D01*
X-10395477Y-21214245D01*
X-10412054Y-21238985D01*
X-10414000Y-21272500D01*
X-10415955Y-21308802D01*
X-10428766Y-21327697D01*
X-10462853Y-21334868D01*
X-10528636Y-21336000D01*
X-10530416Y-21336000D01*
X-10596970Y-21334934D01*
X-10631611Y-21327946D01*
X-10644758Y-21309353D01*
X-10646833Y-21273471D01*
X-10646833Y-21272500D01*
X-10652078Y-21227523D01*
X-10676818Y-21210945D01*
X-10710333Y-21209000D01*
X-10755715Y-21203305D01*
X-10772317Y-21179095D01*
X-10773833Y-21156083D01*
X-10782576Y-21115803D01*
X-10816998Y-21103390D01*
X-10826750Y-21103167D01*
X-10851800Y-21101650D01*
X-10867353Y-21091668D01*
X-10875673Y-21065076D01*
X-10879022Y-21013726D01*
X-10879664Y-20929472D01*
X-10879666Y-20912667D01*
X-10879666Y-20722167D01*
X-10646833Y-20722167D01*
X-10646833Y-21082000D01*
X-10436879Y-21082000D01*
X-10424583Y-20732750D01*
X-10302875Y-20726402D01*
X-10181166Y-20720054D01*
X-10181166Y-20911610D01*
G37*
X-10181166Y-20911610D02*
X-10181582Y-21002090D01*
X-10184325Y-21058360D01*
X-10191639Y-21088545D01*
X-10205769Y-21100769D01*
X-10228958Y-21103155D01*
X-10234083Y-21103167D01*
X-10274364Y-21111909D01*
X-10286776Y-21146331D01*
X-10287000Y-21156083D01*
X-10293834Y-21193901D01*
X-10322886Y-21207736D01*
X-10350500Y-21209000D01*
X-10395477Y-21214245D01*
X-10412054Y-21238985D01*
X-10414000Y-21272500D01*
X-10415955Y-21308802D01*
X-10428766Y-21327697D01*
X-10462853Y-21334868D01*
X-10528636Y-21336000D01*
X-10530416Y-21336000D01*
X-10596970Y-21334934D01*
X-10631611Y-21327946D01*
X-10644758Y-21309353D01*
X-10646833Y-21273471D01*
X-10646833Y-21272500D01*
X-10652078Y-21227523D01*
X-10676818Y-21210945D01*
X-10710333Y-21209000D01*
X-10755715Y-21203305D01*
X-10772317Y-21179095D01*
X-10773833Y-21156083D01*
X-10782576Y-21115803D01*
X-10816998Y-21103390D01*
X-10826750Y-21103167D01*
X-10851800Y-21101650D01*
X-10867353Y-21091668D01*
X-10875673Y-21065076D01*
X-10879022Y-21013726D01*
X-10879664Y-20929472D01*
X-10879666Y-20912667D01*
X-10879666Y-20722167D01*
X-10646833Y-20722167D01*
X-10646833Y-21082000D01*
X-10436879Y-21082000D01*
X-10424583Y-20732750D01*
X-10302875Y-20726402D01*
X-10181166Y-20720054D01*
X-10181166Y-20911610D01*
G36*
X-9482666Y-21187833D02*
G01*
X-9249833Y-21187833D01*
X-9249833Y-21336000D01*
X-9972182Y-21336000D01*
X-9965549Y-21267208D01*
X-9959359Y-21227049D01*
X-9943287Y-21205833D01*
X-9906028Y-21196342D01*
X-9847791Y-21192019D01*
X-9736666Y-21185621D01*
X-9736666Y-20743333D01*
X-9789583Y-20743333D01*
X-9827401Y-20736499D01*
X-9841236Y-20707447D01*
X-9842500Y-20679833D01*
X-9836718Y-20634363D01*
X-9812519Y-20617766D01*
X-9790989Y-20616333D01*
X-9751152Y-20606600D01*
X-9734372Y-20569559D01*
X-9732781Y-20558125D01*
X-9726038Y-20525137D01*
X-9708349Y-20506921D01*
X-9668969Y-20498075D01*
X-9604375Y-20493569D01*
X-9482666Y-20487221D01*
X-9482666Y-21187833D01*
G37*
X-9482666Y-21187833D02*
X-9249833Y-21187833D01*
X-9249833Y-21336000D01*
X-9972182Y-21336000D01*
X-9965549Y-21267208D01*
X-9959359Y-21227049D01*
X-9943287Y-21205833D01*
X-9906028Y-21196342D01*
X-9847791Y-21192019D01*
X-9736666Y-21185621D01*
X-9736666Y-20743333D01*
X-9789583Y-20743333D01*
X-9827401Y-20736499D01*
X-9841236Y-20707447D01*
X-9842500Y-20679833D01*
X-9836718Y-20634363D01*
X-9812519Y-20617766D01*
X-9790989Y-20616333D01*
X-9751152Y-20606600D01*
X-9734372Y-20569559D01*
X-9732781Y-20558125D01*
X-9726038Y-20525137D01*
X-9708349Y-20506921D01*
X-9668969Y-20498075D01*
X-9604375Y-20493569D01*
X-9482666Y-20487221D01*
X-9482666Y-21187833D01*
G36*
X-8657166Y-21336000D02*
G01*
X-8911166Y-21336000D01*
X-8911166Y-21082000D01*
X-8657166Y-21082000D01*
X-8657166Y-21336000D01*
G37*
X-8657166Y-21336000D02*
X-8911166Y-21336000D01*
X-8911166Y-21082000D01*
X-8657166Y-21082000D01*
X-8657166Y-21336000D01*
G36*
X-7623886Y-20558125D02*
G01*
X-7610238Y-20601876D01*
X-7575832Y-20616022D01*
X-7565677Y-20616333D01*
X-7526367Y-20625418D01*
X-7514340Y-20660669D01*
X-7514166Y-20669250D01*
X-7507332Y-20707068D01*
X-7478280Y-20720903D01*
X-7450666Y-20722167D01*
X-7387166Y-20722167D01*
X-7387166Y-21103167D01*
X-7450666Y-21103167D01*
X-7496048Y-21108862D01*
X-7512650Y-21133072D01*
X-7514166Y-21156083D01*
X-7522909Y-21196364D01*
X-7557331Y-21208776D01*
X-7567083Y-21209000D01*
X-7604901Y-21215834D01*
X-7618736Y-21244886D01*
X-7620000Y-21272500D01*
X-7620000Y-21336000D01*
X-8001000Y-21336000D01*
X-8001000Y-21272500D01*
X-8006695Y-21227118D01*
X-8030905Y-21210516D01*
X-8053916Y-21209000D01*
X-8094299Y-21200157D01*
X-8106655Y-21165842D01*
X-8106833Y-21157489D01*
X-8116567Y-21117652D01*
X-8153607Y-21100872D01*
X-8165041Y-21099281D01*
X-8223250Y-21092583D01*
X-8223250Y-20732750D01*
X-8165041Y-20726052D01*
X-8121290Y-20712405D01*
X-8107145Y-20677999D01*
X-8106833Y-20667844D01*
X-8099642Y-20637500D01*
X-7979833Y-20637500D01*
X-7979833Y-21082000D01*
X-7916333Y-21082000D01*
X-7870951Y-21087695D01*
X-7854350Y-21111905D01*
X-7852833Y-21134917D01*
X-7849402Y-21166322D01*
X-7831891Y-21181989D01*
X-7789473Y-21187332D01*
X-7747000Y-21187833D01*
X-7641166Y-21187833D01*
X-7641166Y-20743333D01*
X-7704666Y-20743333D01*
X-7750048Y-20737638D01*
X-7766650Y-20713428D01*
X-7768166Y-20690417D01*
X-7771598Y-20659011D01*
X-7789109Y-20643344D01*
X-7831526Y-20638001D01*
X-7874000Y-20637500D01*
X-7979833Y-20637500D01*
X-8099642Y-20637500D01*
X-8097433Y-20628182D01*
X-8061418Y-20616426D01*
X-8055322Y-20616333D01*
X-8015485Y-20606600D01*
X-7998705Y-20569559D01*
X-7997114Y-20558125D01*
X-7990416Y-20499917D01*
X-7630583Y-20499917D01*
X-7623886Y-20558125D01*
G37*
X-7623886Y-20558125D02*
X-7610238Y-20601876D01*
X-7575832Y-20616022D01*
X-7565677Y-20616333D01*
X-7526367Y-20625418D01*
X-7514340Y-20660669D01*
X-7514166Y-20669250D01*
X-7507332Y-20707068D01*
X-7478280Y-20720903D01*
X-7450666Y-20722167D01*
X-7387166Y-20722167D01*
X-7387166Y-21103167D01*
X-7450666Y-21103167D01*
X-7496048Y-21108862D01*
X-7512650Y-21133072D01*
X-7514166Y-21156083D01*
X-7522909Y-21196364D01*
X-7557331Y-21208776D01*
X-7567083Y-21209000D01*
X-7604901Y-21215834D01*
X-7618736Y-21244886D01*
X-7620000Y-21272500D01*
X-7620000Y-21336000D01*
X-8001000Y-21336000D01*
X-8001000Y-21272500D01*
X-8006695Y-21227118D01*
X-8030905Y-21210516D01*
X-8053916Y-21209000D01*
X-8094299Y-21200157D01*
X-8106655Y-21165842D01*
X-8106833Y-21157489D01*
X-8116567Y-21117652D01*
X-8153607Y-21100872D01*
X-8165041Y-21099281D01*
X-8223250Y-21092583D01*
X-8223250Y-20732750D01*
X-8165041Y-20726052D01*
X-8121290Y-20712405D01*
X-8107145Y-20677999D01*
X-8106833Y-20667844D01*
X-8099642Y-20637500D01*
X-7979833Y-20637500D01*
X-7979833Y-21082000D01*
X-7916333Y-21082000D01*
X-7870951Y-21087695D01*
X-7854350Y-21111905D01*
X-7852833Y-21134917D01*
X-7849402Y-21166322D01*
X-7831891Y-21181989D01*
X-7789473Y-21187332D01*
X-7747000Y-21187833D01*
X-7641166Y-21187833D01*
X-7641166Y-20743333D01*
X-7704666Y-20743333D01*
X-7750048Y-20737638D01*
X-7766650Y-20713428D01*
X-7768166Y-20690417D01*
X-7771598Y-20659011D01*
X-7789109Y-20643344D01*
X-7831526Y-20638001D01*
X-7874000Y-20637500D01*
X-7979833Y-20637500D01*
X-8099642Y-20637500D01*
X-8097433Y-20628182D01*
X-8061418Y-20616426D01*
X-8055322Y-20616333D01*
X-8015485Y-20606600D01*
X-7998705Y-20569559D01*
X-7997114Y-20558125D01*
X-7990416Y-20499917D01*
X-7630583Y-20499917D01*
X-7623886Y-20558125D01*
G36*
X-6302375Y-20493284D02*
G01*
X-6252999Y-20504338D01*
X-6231631Y-20532412D01*
X-6226886Y-20558125D01*
X-6213238Y-20601876D01*
X-6178832Y-20616022D01*
X-6168677Y-20616333D01*
X-6129016Y-20625733D01*
X-6117259Y-20661748D01*
X-6117166Y-20667844D01*
X-6107433Y-20707681D01*
X-6070393Y-20724461D01*
X-6058958Y-20726052D01*
X-6013623Y-20741212D01*
X-5995383Y-20781252D01*
X-5994052Y-20790958D01*
X-5980405Y-20834709D01*
X-5945999Y-20848855D01*
X-5935844Y-20849167D01*
X-5896534Y-20858251D01*
X-5884506Y-20893502D01*
X-5884333Y-20902083D01*
X-5875591Y-20942364D01*
X-5841168Y-20954776D01*
X-5831416Y-20955000D01*
X-5793598Y-20961834D01*
X-5779764Y-20990886D01*
X-5778500Y-21018500D01*
X-5773255Y-21063477D01*
X-5748515Y-21080054D01*
X-5715000Y-21082000D01*
X-5669618Y-21087695D01*
X-5653016Y-21111905D01*
X-5651500Y-21134917D01*
X-5642757Y-21175197D01*
X-5608335Y-21187610D01*
X-5598583Y-21187833D01*
X-5562798Y-21193368D01*
X-5548148Y-21218276D01*
X-5545666Y-21261917D01*
X-5549206Y-21311690D01*
X-5567161Y-21332105D01*
X-5609166Y-21336000D01*
X-5654144Y-21330755D01*
X-5670721Y-21306015D01*
X-5672666Y-21272500D01*
X-5677911Y-21227523D01*
X-5702651Y-21210945D01*
X-5736166Y-21209000D01*
X-5781548Y-21203305D01*
X-5798150Y-21179095D01*
X-5799666Y-21156083D01*
X-5808409Y-21115803D01*
X-5842831Y-21103390D01*
X-5852583Y-21103167D01*
X-5890401Y-21096332D01*
X-5904236Y-21067280D01*
X-5905500Y-21039667D01*
X-5911195Y-20994285D01*
X-5935405Y-20977683D01*
X-5958416Y-20976167D01*
X-5998697Y-20967424D01*
X-6011110Y-20933002D01*
X-6011333Y-20923250D01*
X-6018168Y-20885432D01*
X-6047220Y-20871597D01*
X-6074833Y-20870333D01*
X-6119810Y-20865088D01*
X-6136388Y-20840348D01*
X-6138333Y-20806833D01*
X-6144028Y-20761451D01*
X-6168238Y-20744850D01*
X-6191250Y-20743333D01*
X-6231530Y-20734591D01*
X-6243943Y-20700168D01*
X-6244166Y-20690417D01*
X-6251001Y-20652598D01*
X-6280053Y-20638764D01*
X-6307666Y-20637500D01*
X-6350065Y-20633485D01*
X-6367654Y-20612941D01*
X-6371166Y-20563124D01*
X-6371166Y-20562075D01*
X-6368363Y-20512171D01*
X-6352159Y-20492873D01*
X-6310861Y-20492490D01*
X-6302375Y-20493284D01*
G37*
X-6302375Y-20493284D02*
X-6252999Y-20504338D01*
X-6231631Y-20532412D01*
X-6226886Y-20558125D01*
X-6213238Y-20601876D01*
X-6178832Y-20616022D01*
X-6168677Y-20616333D01*
X-6129016Y-20625733D01*
X-6117259Y-20661748D01*
X-6117166Y-20667844D01*
X-6107433Y-20707681D01*
X-6070393Y-20724461D01*
X-6058958Y-20726052D01*
X-6013623Y-20741212D01*
X-5995383Y-20781252D01*
X-5994052Y-20790958D01*
X-5980405Y-20834709D01*
X-5945999Y-20848855D01*
X-5935844Y-20849167D01*
X-5896534Y-20858251D01*
X-5884506Y-20893502D01*
X-5884333Y-20902083D01*
X-5875591Y-20942364D01*
X-5841168Y-20954776D01*
X-5831416Y-20955000D01*
X-5793598Y-20961834D01*
X-5779764Y-20990886D01*
X-5778500Y-21018500D01*
X-5773255Y-21063477D01*
X-5748515Y-21080054D01*
X-5715000Y-21082000D01*
X-5669618Y-21087695D01*
X-5653016Y-21111905D01*
X-5651500Y-21134917D01*
X-5642757Y-21175197D01*
X-5608335Y-21187610D01*
X-5598583Y-21187833D01*
X-5562798Y-21193368D01*
X-5548148Y-21218276D01*
X-5545666Y-21261917D01*
X-5549206Y-21311690D01*
X-5567161Y-21332105D01*
X-5609166Y-21336000D01*
X-5654144Y-21330755D01*
X-5670721Y-21306015D01*
X-5672666Y-21272500D01*
X-5677911Y-21227523D01*
X-5702651Y-21210945D01*
X-5736166Y-21209000D01*
X-5781548Y-21203305D01*
X-5798150Y-21179095D01*
X-5799666Y-21156083D01*
X-5808409Y-21115803D01*
X-5842831Y-21103390D01*
X-5852583Y-21103167D01*
X-5890401Y-21096332D01*
X-5904236Y-21067280D01*
X-5905500Y-21039667D01*
X-5911195Y-20994285D01*
X-5935405Y-20977683D01*
X-5958416Y-20976167D01*
X-5998697Y-20967424D01*
X-6011110Y-20933002D01*
X-6011333Y-20923250D01*
X-6018168Y-20885432D01*
X-6047220Y-20871597D01*
X-6074833Y-20870333D01*
X-6119810Y-20865088D01*
X-6136388Y-20840348D01*
X-6138333Y-20806833D01*
X-6144028Y-20761451D01*
X-6168238Y-20744850D01*
X-6191250Y-20743333D01*
X-6231530Y-20734591D01*
X-6243943Y-20700168D01*
X-6244166Y-20690417D01*
X-6251001Y-20652598D01*
X-6280053Y-20638764D01*
X-6307666Y-20637500D01*
X-6350065Y-20633485D01*
X-6367654Y-20612941D01*
X-6371166Y-20563124D01*
X-6371166Y-20562075D01*
X-6368363Y-20512171D01*
X-6352159Y-20492873D01*
X-6310861Y-20492490D01*
X-6302375Y-20493284D01*
G36*
X-5331356Y-20494578D02*
G01*
X-5314779Y-20519318D01*
X-5312833Y-20552833D01*
X-5307588Y-20597810D01*
X-5282848Y-20614388D01*
X-5249333Y-20616333D01*
X-5203951Y-20622028D01*
X-5187350Y-20646238D01*
X-5185833Y-20669250D01*
X-5177091Y-20709530D01*
X-5142668Y-20721943D01*
X-5132916Y-20722167D01*
X-5095098Y-20729001D01*
X-5081264Y-20758053D01*
X-5080000Y-20785667D01*
X-5074755Y-20830644D01*
X-5050015Y-20847221D01*
X-5016500Y-20849167D01*
X-4971118Y-20854862D01*
X-4954516Y-20879072D01*
X-4953000Y-20902083D01*
X-4944257Y-20942364D01*
X-4909835Y-20954776D01*
X-4900083Y-20955000D01*
X-4862265Y-20961834D01*
X-4848430Y-20990886D01*
X-4847166Y-21018500D01*
X-4841922Y-21063477D01*
X-4817182Y-21080054D01*
X-4783666Y-21082000D01*
X-4738285Y-21087695D01*
X-4721683Y-21111905D01*
X-4720166Y-21134917D01*
X-4711424Y-21175197D01*
X-4677002Y-21187610D01*
X-4667250Y-21187833D01*
X-4631464Y-21193368D01*
X-4616815Y-21218276D01*
X-4614333Y-21261917D01*
X-4617873Y-21311690D01*
X-4635828Y-21332105D01*
X-4677833Y-21336000D01*
X-4722810Y-21330755D01*
X-4739388Y-21306015D01*
X-4741333Y-21272500D01*
X-4746578Y-21227523D01*
X-4771318Y-21210945D01*
X-4804833Y-21209000D01*
X-4850215Y-21203305D01*
X-4866817Y-21179095D01*
X-4868333Y-21156083D01*
X-4877076Y-21115803D01*
X-4911498Y-21103390D01*
X-4921250Y-21103167D01*
X-4959068Y-21096332D01*
X-4972903Y-21067280D01*
X-4974166Y-21039667D01*
X-4979411Y-20994689D01*
X-5004151Y-20978112D01*
X-5037666Y-20976167D01*
X-5083048Y-20970471D01*
X-5099650Y-20946261D01*
X-5101166Y-20923250D01*
X-5109909Y-20882969D01*
X-5144331Y-20870557D01*
X-5154083Y-20870333D01*
X-5191901Y-20863499D01*
X-5205736Y-20834447D01*
X-5207000Y-20806833D01*
X-5212245Y-20761856D01*
X-5236985Y-20745279D01*
X-5270500Y-20743333D01*
X-5315882Y-20737638D01*
X-5332483Y-20713428D01*
X-5334000Y-20690417D01*
X-5342742Y-20650136D01*
X-5377165Y-20637723D01*
X-5386916Y-20637500D01*
X-5422702Y-20631965D01*
X-5437352Y-20607057D01*
X-5439833Y-20563417D01*
X-5436293Y-20513643D01*
X-5418338Y-20493228D01*
X-5376333Y-20489333D01*
X-5331356Y-20494578D01*
G37*
X-5331356Y-20494578D02*
X-5314779Y-20519318D01*
X-5312833Y-20552833D01*
X-5307588Y-20597810D01*
X-5282848Y-20614388D01*
X-5249333Y-20616333D01*
X-5203951Y-20622028D01*
X-5187350Y-20646238D01*
X-5185833Y-20669250D01*
X-5177091Y-20709530D01*
X-5142668Y-20721943D01*
X-5132916Y-20722167D01*
X-5095098Y-20729001D01*
X-5081264Y-20758053D01*
X-5080000Y-20785667D01*
X-5074755Y-20830644D01*
X-5050015Y-20847221D01*
X-5016500Y-20849167D01*
X-4971118Y-20854862D01*
X-4954516Y-20879072D01*
X-4953000Y-20902083D01*
X-4944257Y-20942364D01*
X-4909835Y-20954776D01*
X-4900083Y-20955000D01*
X-4862265Y-20961834D01*
X-4848430Y-20990886D01*
X-4847166Y-21018500D01*
X-4841922Y-21063477D01*
X-4817182Y-21080054D01*
X-4783666Y-21082000D01*
X-4738285Y-21087695D01*
X-4721683Y-21111905D01*
X-4720166Y-21134917D01*
X-4711424Y-21175197D01*
X-4677002Y-21187610D01*
X-4667250Y-21187833D01*
X-4631464Y-21193368D01*
X-4616815Y-21218276D01*
X-4614333Y-21261917D01*
X-4617873Y-21311690D01*
X-4635828Y-21332105D01*
X-4677833Y-21336000D01*
X-4722810Y-21330755D01*
X-4739388Y-21306015D01*
X-4741333Y-21272500D01*
X-4746578Y-21227523D01*
X-4771318Y-21210945D01*
X-4804833Y-21209000D01*
X-4850215Y-21203305D01*
X-4866817Y-21179095D01*
X-4868333Y-21156083D01*
X-4877076Y-21115803D01*
X-4911498Y-21103390D01*
X-4921250Y-21103167D01*
X-4959068Y-21096332D01*
X-4972903Y-21067280D01*
X-4974166Y-21039667D01*
X-4979411Y-20994689D01*
X-5004151Y-20978112D01*
X-5037666Y-20976167D01*
X-5083048Y-20970471D01*
X-5099650Y-20946261D01*
X-5101166Y-20923250D01*
X-5109909Y-20882969D01*
X-5144331Y-20870557D01*
X-5154083Y-20870333D01*
X-5191901Y-20863499D01*
X-5205736Y-20834447D01*
X-5207000Y-20806833D01*
X-5212245Y-20761856D01*
X-5236985Y-20745279D01*
X-5270500Y-20743333D01*
X-5315882Y-20737638D01*
X-5332483Y-20713428D01*
X-5334000Y-20690417D01*
X-5342742Y-20650136D01*
X-5377165Y-20637723D01*
X-5386916Y-20637500D01*
X-5422702Y-20631965D01*
X-5437352Y-20607057D01*
X-5439833Y-20563417D01*
X-5436293Y-20513643D01*
X-5418338Y-20493228D01*
X-5376333Y-20489333D01*
X-5331356Y-20494578D01*
G36*
X-4400023Y-20494578D02*
G01*
X-4383445Y-20519318D01*
X-4381500Y-20552833D01*
X-4376255Y-20597810D01*
X-4351515Y-20614388D01*
X-4318000Y-20616333D01*
X-4272618Y-20622028D01*
X-4256016Y-20646238D01*
X-4254500Y-20669250D01*
X-4245757Y-20709530D01*
X-4211335Y-20721943D01*
X-4201583Y-20722167D01*
X-4163765Y-20729001D01*
X-4149930Y-20758053D01*
X-4148666Y-20785667D01*
X-4143422Y-20830644D01*
X-4118682Y-20847221D01*
X-4085166Y-20849167D01*
X-4039785Y-20854862D01*
X-4023183Y-20879072D01*
X-4021666Y-20902083D01*
X-4012924Y-20942364D01*
X-3978502Y-20954776D01*
X-3968750Y-20955000D01*
X-3930932Y-20961834D01*
X-3917097Y-20990886D01*
X-3915833Y-21018500D01*
X-3910588Y-21063477D01*
X-3885848Y-21080054D01*
X-3852333Y-21082000D01*
X-3806951Y-21087695D01*
X-3790350Y-21111905D01*
X-3788833Y-21134917D01*
X-3780091Y-21175197D01*
X-3745668Y-21187610D01*
X-3735916Y-21187833D01*
X-3700131Y-21193368D01*
X-3685481Y-21218276D01*
X-3683000Y-21261917D01*
X-3686540Y-21311690D01*
X-3704495Y-21332105D01*
X-3746500Y-21336000D01*
X-3791477Y-21330755D01*
X-3808054Y-21306015D01*
X-3810000Y-21272500D01*
X-3815245Y-21227523D01*
X-3839985Y-21210945D01*
X-3873500Y-21209000D01*
X-3918882Y-21203305D01*
X-3935483Y-21179095D01*
X-3937000Y-21156083D01*
X-3945742Y-21115803D01*
X-3980165Y-21103390D01*
X-3989916Y-21103167D01*
X-4027735Y-21096332D01*
X-4041569Y-21067280D01*
X-4042833Y-21039667D01*
X-4048078Y-20994689D01*
X-4072818Y-20978112D01*
X-4106333Y-20976167D01*
X-4151715Y-20970471D01*
X-4168317Y-20946261D01*
X-4169833Y-20923250D01*
X-4178576Y-20882969D01*
X-4212998Y-20870557D01*
X-4222750Y-20870333D01*
X-4260568Y-20863499D01*
X-4274403Y-20834447D01*
X-4275666Y-20806833D01*
X-4280911Y-20761856D01*
X-4305651Y-20745279D01*
X-4339166Y-20743333D01*
X-4384548Y-20737638D01*
X-4401150Y-20713428D01*
X-4402666Y-20690417D01*
X-4411409Y-20650136D01*
X-4445831Y-20637723D01*
X-4455583Y-20637500D01*
X-4491369Y-20631965D01*
X-4506018Y-20607057D01*
X-4508500Y-20563417D01*
X-4504960Y-20513643D01*
X-4487005Y-20493228D01*
X-4445000Y-20489333D01*
X-4400023Y-20494578D01*
G37*
X-4400023Y-20494578D02*
X-4383445Y-20519318D01*
X-4381500Y-20552833D01*
X-4376255Y-20597810D01*
X-4351515Y-20614388D01*
X-4318000Y-20616333D01*
X-4272618Y-20622028D01*
X-4256016Y-20646238D01*
X-4254500Y-20669250D01*
X-4245757Y-20709530D01*
X-4211335Y-20721943D01*
X-4201583Y-20722167D01*
X-4163765Y-20729001D01*
X-4149930Y-20758053D01*
X-4148666Y-20785667D01*
X-4143422Y-20830644D01*
X-4118682Y-20847221D01*
X-4085166Y-20849167D01*
X-4039785Y-20854862D01*
X-4023183Y-20879072D01*
X-4021666Y-20902083D01*
X-4012924Y-20942364D01*
X-3978502Y-20954776D01*
X-3968750Y-20955000D01*
X-3930932Y-20961834D01*
X-3917097Y-20990886D01*
X-3915833Y-21018500D01*
X-3910588Y-21063477D01*
X-3885848Y-21080054D01*
X-3852333Y-21082000D01*
X-3806951Y-21087695D01*
X-3790350Y-21111905D01*
X-3788833Y-21134917D01*
X-3780091Y-21175197D01*
X-3745668Y-21187610D01*
X-3735916Y-21187833D01*
X-3700131Y-21193368D01*
X-3685481Y-21218276D01*
X-3683000Y-21261917D01*
X-3686540Y-21311690D01*
X-3704495Y-21332105D01*
X-3746500Y-21336000D01*
X-3791477Y-21330755D01*
X-3808054Y-21306015D01*
X-3810000Y-21272500D01*
X-3815245Y-21227523D01*
X-3839985Y-21210945D01*
X-3873500Y-21209000D01*
X-3918882Y-21203305D01*
X-3935483Y-21179095D01*
X-3937000Y-21156083D01*
X-3945742Y-21115803D01*
X-3980165Y-21103390D01*
X-3989916Y-21103167D01*
X-4027735Y-21096332D01*
X-4041569Y-21067280D01*
X-4042833Y-21039667D01*
X-4048078Y-20994689D01*
X-4072818Y-20978112D01*
X-4106333Y-20976167D01*
X-4151715Y-20970471D01*
X-4168317Y-20946261D01*
X-4169833Y-20923250D01*
X-4178576Y-20882969D01*
X-4212998Y-20870557D01*
X-4222750Y-20870333D01*
X-4260568Y-20863499D01*
X-4274403Y-20834447D01*
X-4275666Y-20806833D01*
X-4280911Y-20761856D01*
X-4305651Y-20745279D01*
X-4339166Y-20743333D01*
X-4384548Y-20737638D01*
X-4401150Y-20713428D01*
X-4402666Y-20690417D01*
X-4411409Y-20650136D01*
X-4445831Y-20637723D01*
X-4455583Y-20637500D01*
X-4491369Y-20631965D01*
X-4506018Y-20607057D01*
X-4508500Y-20563417D01*
X-4504960Y-20513643D01*
X-4487005Y-20493228D01*
X-4445000Y-20489333D01*
X-4400023Y-20494578D01*
G36*
X-3468689Y-20494578D02*
G01*
X-3452112Y-20519318D01*
X-3450166Y-20552833D01*
X-3444471Y-20598215D01*
X-3420261Y-20614817D01*
X-3397250Y-20616333D01*
X-3356969Y-20625076D01*
X-3344557Y-20659498D01*
X-3344333Y-20669250D01*
X-3337499Y-20707068D01*
X-3308447Y-20720903D01*
X-3280833Y-20722167D01*
X-3235856Y-20727411D01*
X-3219279Y-20752151D01*
X-3217333Y-20785667D01*
X-3211638Y-20831048D01*
X-3187428Y-20847650D01*
X-3164416Y-20849167D01*
X-3124136Y-20857909D01*
X-3111723Y-20892331D01*
X-3111500Y-20902083D01*
X-3104665Y-20939901D01*
X-3075613Y-20953736D01*
X-3048000Y-20955000D01*
X-3003023Y-20960245D01*
X-2986445Y-20984985D01*
X-2984500Y-21018500D01*
X-2978805Y-21063882D01*
X-2954595Y-21080483D01*
X-2931583Y-21082000D01*
X-2891303Y-21090742D01*
X-2878890Y-21125165D01*
X-2878666Y-21134917D01*
X-2871832Y-21172735D01*
X-2842780Y-21186569D01*
X-2815166Y-21187833D01*
X-2772503Y-21191963D01*
X-2755005Y-21212911D01*
X-2751666Y-21261917D01*
X-2754943Y-21311569D01*
X-2773430Y-21331933D01*
X-2820111Y-21335991D01*
X-2825750Y-21336000D01*
X-2875524Y-21332460D01*
X-2895939Y-21314505D01*
X-2899833Y-21272500D01*
X-2905528Y-21227118D01*
X-2929738Y-21210516D01*
X-2952750Y-21209000D01*
X-2993030Y-21200257D01*
X-3005443Y-21165835D01*
X-3005666Y-21156083D01*
X-3012501Y-21118265D01*
X-3041553Y-21104430D01*
X-3069166Y-21103167D01*
X-3114144Y-21097922D01*
X-3130721Y-21073182D01*
X-3132666Y-21039667D01*
X-3138362Y-20994285D01*
X-3162572Y-20977683D01*
X-3185583Y-20976167D01*
X-3225966Y-20967323D01*
X-3238322Y-20933009D01*
X-3238500Y-20924656D01*
X-3248233Y-20884819D01*
X-3285274Y-20868039D01*
X-3296708Y-20866447D01*
X-3342043Y-20851288D01*
X-3360283Y-20811248D01*
X-3361614Y-20801542D01*
X-3375262Y-20757790D01*
X-3409668Y-20743645D01*
X-3419822Y-20743333D01*
X-3459132Y-20734249D01*
X-3471160Y-20698998D01*
X-3471333Y-20690417D01*
X-3480076Y-20650136D01*
X-3514498Y-20637723D01*
X-3524250Y-20637500D01*
X-3560035Y-20631965D01*
X-3574685Y-20607057D01*
X-3577166Y-20563417D01*
X-3573627Y-20513643D01*
X-3555672Y-20493228D01*
X-3513666Y-20489333D01*
X-3468689Y-20494578D01*
G37*
X-3468689Y-20494578D02*
X-3452112Y-20519318D01*
X-3450166Y-20552833D01*
X-3444471Y-20598215D01*
X-3420261Y-20614817D01*
X-3397250Y-20616333D01*
X-3356969Y-20625076D01*
X-3344557Y-20659498D01*
X-3344333Y-20669250D01*
X-3337499Y-20707068D01*
X-3308447Y-20720903D01*
X-3280833Y-20722167D01*
X-3235856Y-20727411D01*
X-3219279Y-20752151D01*
X-3217333Y-20785667D01*
X-3211638Y-20831048D01*
X-3187428Y-20847650D01*
X-3164416Y-20849167D01*
X-3124136Y-20857909D01*
X-3111723Y-20892331D01*
X-3111500Y-20902083D01*
X-3104665Y-20939901D01*
X-3075613Y-20953736D01*
X-3048000Y-20955000D01*
X-3003023Y-20960245D01*
X-2986445Y-20984985D01*
X-2984500Y-21018500D01*
X-2978805Y-21063882D01*
X-2954595Y-21080483D01*
X-2931583Y-21082000D01*
X-2891303Y-21090742D01*
X-2878890Y-21125165D01*
X-2878666Y-21134917D01*
X-2871832Y-21172735D01*
X-2842780Y-21186569D01*
X-2815166Y-21187833D01*
X-2772503Y-21191963D01*
X-2755005Y-21212911D01*
X-2751666Y-21261917D01*
X-2754943Y-21311569D01*
X-2773430Y-21331933D01*
X-2820111Y-21335991D01*
X-2825750Y-21336000D01*
X-2875524Y-21332460D01*
X-2895939Y-21314505D01*
X-2899833Y-21272500D01*
X-2905528Y-21227118D01*
X-2929738Y-21210516D01*
X-2952750Y-21209000D01*
X-2993030Y-21200257D01*
X-3005443Y-21165835D01*
X-3005666Y-21156083D01*
X-3012501Y-21118265D01*
X-3041553Y-21104430D01*
X-3069166Y-21103167D01*
X-3114144Y-21097922D01*
X-3130721Y-21073182D01*
X-3132666Y-21039667D01*
X-3138362Y-20994285D01*
X-3162572Y-20977683D01*
X-3185583Y-20976167D01*
X-3225966Y-20967323D01*
X-3238322Y-20933009D01*
X-3238500Y-20924656D01*
X-3248233Y-20884819D01*
X-3285274Y-20868039D01*
X-3296708Y-20866447D01*
X-3342043Y-20851288D01*
X-3360283Y-20811248D01*
X-3361614Y-20801542D01*
X-3375262Y-20757790D01*
X-3409668Y-20743645D01*
X-3419822Y-20743333D01*
X-3459132Y-20734249D01*
X-3471160Y-20698998D01*
X-3471333Y-20690417D01*
X-3480076Y-20650136D01*
X-3514498Y-20637723D01*
X-3524250Y-20637500D01*
X-3560035Y-20631965D01*
X-3574685Y-20607057D01*
X-3577166Y-20563417D01*
X-3573627Y-20513643D01*
X-3555672Y-20493228D01*
X-3513666Y-20489333D01*
X-3468689Y-20494578D01*
G36*
X-2546495Y-20506374D02*
G01*
X-2526896Y-20533798D01*
X-2522719Y-20558125D01*
X-2509071Y-20601876D01*
X-2474665Y-20616022D01*
X-2464511Y-20616333D01*
X-2424849Y-20625733D01*
X-2413093Y-20661748D01*
X-2413000Y-20667844D01*
X-2403266Y-20707681D01*
X-2366226Y-20724461D01*
X-2354791Y-20726052D01*
X-2309456Y-20741212D01*
X-2291216Y-20781252D01*
X-2289886Y-20790958D01*
X-2276238Y-20834709D01*
X-2241832Y-20848855D01*
X-2231677Y-20849167D01*
X-2192016Y-20858567D01*
X-2180259Y-20894582D01*
X-2180166Y-20900677D01*
X-2170433Y-20940514D01*
X-2133393Y-20957294D01*
X-2121958Y-20958886D01*
X-2076623Y-20974045D01*
X-2058383Y-21014085D01*
X-2057052Y-21023792D01*
X-2043405Y-21067543D01*
X-2008999Y-21081688D01*
X-1998844Y-21082000D01*
X-1959182Y-21091400D01*
X-1947426Y-21127415D01*
X-1947333Y-21133511D01*
X-1937600Y-21173348D01*
X-1900559Y-21190128D01*
X-1889125Y-21191719D01*
X-1847239Y-21203976D01*
X-1828723Y-21236851D01*
X-1824284Y-21267208D01*
X-1822945Y-21312971D01*
X-1838877Y-21331997D01*
X-1883773Y-21335978D01*
X-1893075Y-21336000D01*
X-1943436Y-21332619D01*
X-1964328Y-21315324D01*
X-1968499Y-21273383D01*
X-1968500Y-21272500D01*
X-1974195Y-21227118D01*
X-1998405Y-21210516D01*
X-2021416Y-21209000D01*
X-2061697Y-21200257D01*
X-2074110Y-21165835D01*
X-2074333Y-21156083D01*
X-2081168Y-21118265D01*
X-2110220Y-21104430D01*
X-2137833Y-21103167D01*
X-2182810Y-21097922D01*
X-2199388Y-21073182D01*
X-2201333Y-21039667D01*
X-2207028Y-20994285D01*
X-2231238Y-20977683D01*
X-2254250Y-20976167D01*
X-2294530Y-20967424D01*
X-2306943Y-20933002D01*
X-2307166Y-20923250D01*
X-2314001Y-20885432D01*
X-2343053Y-20871597D01*
X-2370666Y-20870333D01*
X-2415644Y-20865088D01*
X-2432221Y-20840348D01*
X-2434166Y-20806833D01*
X-2439862Y-20761451D01*
X-2464072Y-20744850D01*
X-2487083Y-20743333D01*
X-2527364Y-20734591D01*
X-2539776Y-20700168D01*
X-2540000Y-20690417D01*
X-2546641Y-20652878D01*
X-2575099Y-20638916D01*
X-2604841Y-20637500D01*
X-2648887Y-20633654D01*
X-2664410Y-20613352D01*
X-2663049Y-20568708D01*
X-2653504Y-20521036D01*
X-2628800Y-20502538D01*
X-2592916Y-20499917D01*
X-2546495Y-20506374D01*
G37*
X-2546495Y-20506374D02*
X-2526896Y-20533798D01*
X-2522719Y-20558125D01*
X-2509071Y-20601876D01*
X-2474665Y-20616022D01*
X-2464511Y-20616333D01*
X-2424849Y-20625733D01*
X-2413093Y-20661748D01*
X-2413000Y-20667844D01*
X-2403266Y-20707681D01*
X-2366226Y-20724461D01*
X-2354791Y-20726052D01*
X-2309456Y-20741212D01*
X-2291216Y-20781252D01*
X-2289886Y-20790958D01*
X-2276238Y-20834709D01*
X-2241832Y-20848855D01*
X-2231677Y-20849167D01*
X-2192016Y-20858567D01*
X-2180259Y-20894582D01*
X-2180166Y-20900677D01*
X-2170433Y-20940514D01*
X-2133393Y-20957294D01*
X-2121958Y-20958886D01*
X-2076623Y-20974045D01*
X-2058383Y-21014085D01*
X-2057052Y-21023792D01*
X-2043405Y-21067543D01*
X-2008999Y-21081688D01*
X-1998844Y-21082000D01*
X-1959182Y-21091400D01*
X-1947426Y-21127415D01*
X-1947333Y-21133511D01*
X-1937600Y-21173348D01*
X-1900559Y-21190128D01*
X-1889125Y-21191719D01*
X-1847239Y-21203976D01*
X-1828723Y-21236851D01*
X-1824284Y-21267208D01*
X-1822945Y-21312971D01*
X-1838877Y-21331997D01*
X-1883773Y-21335978D01*
X-1893075Y-21336000D01*
X-1943436Y-21332619D01*
X-1964328Y-21315324D01*
X-1968499Y-21273383D01*
X-1968500Y-21272500D01*
X-1974195Y-21227118D01*
X-1998405Y-21210516D01*
X-2021416Y-21209000D01*
X-2061697Y-21200257D01*
X-2074110Y-21165835D01*
X-2074333Y-21156083D01*
X-2081168Y-21118265D01*
X-2110220Y-21104430D01*
X-2137833Y-21103167D01*
X-2182810Y-21097922D01*
X-2199388Y-21073182D01*
X-2201333Y-21039667D01*
X-2207028Y-20994285D01*
X-2231238Y-20977683D01*
X-2254250Y-20976167D01*
X-2294530Y-20967424D01*
X-2306943Y-20933002D01*
X-2307166Y-20923250D01*
X-2314001Y-20885432D01*
X-2343053Y-20871597D01*
X-2370666Y-20870333D01*
X-2415644Y-20865088D01*
X-2432221Y-20840348D01*
X-2434166Y-20806833D01*
X-2439862Y-20761451D01*
X-2464072Y-20744850D01*
X-2487083Y-20743333D01*
X-2527364Y-20734591D01*
X-2539776Y-20700168D01*
X-2540000Y-20690417D01*
X-2546641Y-20652878D01*
X-2575099Y-20638916D01*
X-2604841Y-20637500D01*
X-2648887Y-20633654D01*
X-2664410Y-20613352D01*
X-2663049Y-20568708D01*
X-2653504Y-20521036D01*
X-2628800Y-20502538D01*
X-2592916Y-20499917D01*
X-2546495Y-20506374D01*
G36*
X-1615161Y-20506374D02*
G01*
X-1595562Y-20533798D01*
X-1591386Y-20558125D01*
X-1577738Y-20601876D01*
X-1543332Y-20616022D01*
X-1533177Y-20616333D01*
X-1493516Y-20625733D01*
X-1481759Y-20661748D01*
X-1481666Y-20667844D01*
X-1471933Y-20707681D01*
X-1434893Y-20724461D01*
X-1423458Y-20726052D01*
X-1378123Y-20741212D01*
X-1359883Y-20781252D01*
X-1358552Y-20790958D01*
X-1344905Y-20834709D01*
X-1310499Y-20848855D01*
X-1300344Y-20849167D01*
X-1261034Y-20858251D01*
X-1249006Y-20893502D01*
X-1248833Y-20902083D01*
X-1240091Y-20942364D01*
X-1205668Y-20954776D01*
X-1195916Y-20955000D01*
X-1158098Y-20961834D01*
X-1144264Y-20990886D01*
X-1143000Y-21018500D01*
X-1137755Y-21063477D01*
X-1113015Y-21080054D01*
X-1079500Y-21082000D01*
X-1034118Y-21087695D01*
X-1017516Y-21111905D01*
X-1016000Y-21134917D01*
X-1007257Y-21175197D01*
X-972835Y-21187610D01*
X-963083Y-21187833D01*
X-927298Y-21193368D01*
X-912648Y-21218276D01*
X-910166Y-21261917D01*
X-913706Y-21311690D01*
X-931661Y-21332105D01*
X-973666Y-21336000D01*
X-1018644Y-21330755D01*
X-1035221Y-21306015D01*
X-1037166Y-21272500D01*
X-1042862Y-21227118D01*
X-1067072Y-21210516D01*
X-1090083Y-21209000D01*
X-1130364Y-21200257D01*
X-1142776Y-21165835D01*
X-1143000Y-21156083D01*
X-1149834Y-21118265D01*
X-1178886Y-21104430D01*
X-1206500Y-21103167D01*
X-1251477Y-21097922D01*
X-1268054Y-21073182D01*
X-1270000Y-21039667D01*
X-1275695Y-20994285D01*
X-1299905Y-20977683D01*
X-1322916Y-20976167D01*
X-1363197Y-20967424D01*
X-1375610Y-20933002D01*
X-1375833Y-20923250D01*
X-1382668Y-20885432D01*
X-1411720Y-20871597D01*
X-1439333Y-20870333D01*
X-1484310Y-20865088D01*
X-1500888Y-20840348D01*
X-1502833Y-20806833D01*
X-1508528Y-20761451D01*
X-1532738Y-20744850D01*
X-1555750Y-20743333D01*
X-1596030Y-20734591D01*
X-1608443Y-20700168D01*
X-1608666Y-20690417D01*
X-1615308Y-20652878D01*
X-1643766Y-20638916D01*
X-1673508Y-20637500D01*
X-1717554Y-20633654D01*
X-1733076Y-20613352D01*
X-1731716Y-20568708D01*
X-1722171Y-20521036D01*
X-1697466Y-20502538D01*
X-1661583Y-20499917D01*
X-1615161Y-20506374D01*
G37*
X-1615161Y-20506374D02*
X-1595562Y-20533798D01*
X-1591386Y-20558125D01*
X-1577738Y-20601876D01*
X-1543332Y-20616022D01*
X-1533177Y-20616333D01*
X-1493516Y-20625733D01*
X-1481759Y-20661748D01*
X-1481666Y-20667844D01*
X-1471933Y-20707681D01*
X-1434893Y-20724461D01*
X-1423458Y-20726052D01*
X-1378123Y-20741212D01*
X-1359883Y-20781252D01*
X-1358552Y-20790958D01*
X-1344905Y-20834709D01*
X-1310499Y-20848855D01*
X-1300344Y-20849167D01*
X-1261034Y-20858251D01*
X-1249006Y-20893502D01*
X-1248833Y-20902083D01*
X-1240091Y-20942364D01*
X-1205668Y-20954776D01*
X-1195916Y-20955000D01*
X-1158098Y-20961834D01*
X-1144264Y-20990886D01*
X-1143000Y-21018500D01*
X-1137755Y-21063477D01*
X-1113015Y-21080054D01*
X-1079500Y-21082000D01*
X-1034118Y-21087695D01*
X-1017516Y-21111905D01*
X-1016000Y-21134917D01*
X-1007257Y-21175197D01*
X-972835Y-21187610D01*
X-963083Y-21187833D01*
X-927298Y-21193368D01*
X-912648Y-21218276D01*
X-910166Y-21261917D01*
X-913706Y-21311690D01*
X-931661Y-21332105D01*
X-973666Y-21336000D01*
X-1018644Y-21330755D01*
X-1035221Y-21306015D01*
X-1037166Y-21272500D01*
X-1042862Y-21227118D01*
X-1067072Y-21210516D01*
X-1090083Y-21209000D01*
X-1130364Y-21200257D01*
X-1142776Y-21165835D01*
X-1143000Y-21156083D01*
X-1149834Y-21118265D01*
X-1178886Y-21104430D01*
X-1206500Y-21103167D01*
X-1251477Y-21097922D01*
X-1268054Y-21073182D01*
X-1270000Y-21039667D01*
X-1275695Y-20994285D01*
X-1299905Y-20977683D01*
X-1322916Y-20976167D01*
X-1363197Y-20967424D01*
X-1375610Y-20933002D01*
X-1375833Y-20923250D01*
X-1382668Y-20885432D01*
X-1411720Y-20871597D01*
X-1439333Y-20870333D01*
X-1484310Y-20865088D01*
X-1500888Y-20840348D01*
X-1502833Y-20806833D01*
X-1508528Y-20761451D01*
X-1532738Y-20744850D01*
X-1555750Y-20743333D01*
X-1596030Y-20734591D01*
X-1608443Y-20700168D01*
X-1608666Y-20690417D01*
X-1615308Y-20652878D01*
X-1643766Y-20638916D01*
X-1673508Y-20637500D01*
X-1717554Y-20633654D01*
X-1733076Y-20613352D01*
X-1731716Y-20568708D01*
X-1722171Y-20521036D01*
X-1697466Y-20502538D01*
X-1661583Y-20499917D01*
X-1615161Y-20506374D01*
G36*
X-4614333Y-19939000D02*
G01*
X-4667250Y-19939000D01*
X-4705068Y-19945834D01*
X-4718903Y-19974886D01*
X-4720166Y-20002500D01*
X-4720166Y-20066000D01*
X-5336682Y-20066000D01*
X-5330049Y-19997208D01*
X-5323416Y-19928417D01*
X-5095875Y-19922409D01*
X-4995195Y-19919175D01*
X-4929479Y-19914816D01*
X-4891360Y-19907789D01*
X-4873471Y-19896552D01*
X-4868445Y-19879563D01*
X-4868333Y-19874784D01*
X-4871170Y-19856561D01*
X-4884551Y-19844599D01*
X-4915783Y-19837590D01*
X-4972173Y-19834230D01*
X-5061027Y-19833211D01*
X-5101166Y-19833167D01*
X-5334000Y-19833167D01*
X-5334000Y-19769667D01*
X-5339695Y-19724285D01*
X-5363905Y-19707683D01*
X-5386916Y-19706167D01*
X-5416244Y-19703477D01*
X-5432077Y-19688783D01*
X-5438559Y-19652144D01*
X-5439832Y-19583618D01*
X-5439833Y-19579167D01*
X-5438713Y-19508781D01*
X-5433002Y-19473333D01*
X-5185833Y-19473333D01*
X-5185833Y-19685000D01*
X-4868333Y-19685000D01*
X-4868333Y-19473333D01*
X-5185833Y-19473333D01*
X-5433002Y-19473333D01*
X-5432590Y-19470781D01*
X-5417324Y-19455223D01*
X-5388771Y-19452169D01*
X-5386916Y-19452167D01*
X-5346636Y-19443424D01*
X-5334223Y-19409002D01*
X-5334000Y-19399250D01*
X-5334000Y-19346333D01*
X-4614333Y-19346333D01*
X-4614333Y-19939000D01*
G37*
X-4614333Y-19939000D02*
X-4667250Y-19939000D01*
X-4705068Y-19945834D01*
X-4718903Y-19974886D01*
X-4720166Y-20002500D01*
X-4720166Y-20066000D01*
X-5336682Y-20066000D01*
X-5330049Y-19997208D01*
X-5323416Y-19928417D01*
X-5095875Y-19922409D01*
X-4995195Y-19919175D01*
X-4929479Y-19914816D01*
X-4891360Y-19907789D01*
X-4873471Y-19896552D01*
X-4868445Y-19879563D01*
X-4868333Y-19874784D01*
X-4871170Y-19856561D01*
X-4884551Y-19844599D01*
X-4915783Y-19837590D01*
X-4972173Y-19834230D01*
X-5061027Y-19833211D01*
X-5101166Y-19833167D01*
X-5334000Y-19833167D01*
X-5334000Y-19769667D01*
X-5339695Y-19724285D01*
X-5363905Y-19707683D01*
X-5386916Y-19706167D01*
X-5416244Y-19703477D01*
X-5432077Y-19688783D01*
X-5438559Y-19652144D01*
X-5439832Y-19583618D01*
X-5439833Y-19579167D01*
X-5438713Y-19508781D01*
X-5433002Y-19473333D01*
X-5185833Y-19473333D01*
X-5185833Y-19685000D01*
X-4868333Y-19685000D01*
X-4868333Y-19473333D01*
X-5185833Y-19473333D01*
X-5433002Y-19473333D01*
X-5432590Y-19470781D01*
X-5417324Y-19455223D01*
X-5388771Y-19452169D01*
X-5386916Y-19452167D01*
X-5346636Y-19443424D01*
X-5334223Y-19409002D01*
X-5334000Y-19399250D01*
X-5334000Y-19346333D01*
X-4614333Y-19346333D01*
X-4614333Y-19939000D01*
G36*
X-3683000Y-19939000D02*
G01*
X-3735916Y-19939000D01*
X-3773735Y-19945834D01*
X-3787569Y-19974886D01*
X-3788833Y-20002500D01*
X-3788833Y-20066000D01*
X-4402666Y-20066000D01*
X-4402666Y-19917833D01*
X-4169833Y-19917833D01*
X-4067936Y-19917346D01*
X-4001051Y-19914998D01*
X-3961860Y-19909457D01*
X-3943044Y-19899394D01*
X-3937286Y-19883478D01*
X-3937000Y-19875500D01*
X-3939679Y-19856973D01*
X-3952596Y-19844812D01*
X-3983068Y-19837687D01*
X-4038414Y-19834265D01*
X-4125952Y-19833219D01*
X-4169833Y-19833167D01*
X-4402666Y-19833167D01*
X-4402666Y-19769667D01*
X-4408362Y-19724285D01*
X-4432572Y-19707683D01*
X-4455583Y-19706167D01*
X-4484910Y-19703477D01*
X-4500744Y-19688783D01*
X-4507226Y-19652144D01*
X-4508499Y-19583618D01*
X-4508500Y-19579167D01*
X-4507379Y-19508781D01*
X-4501669Y-19473333D01*
X-4254500Y-19473333D01*
X-4254500Y-19685000D01*
X-3937000Y-19685000D01*
X-3937000Y-19473333D01*
X-4254500Y-19473333D01*
X-4501669Y-19473333D01*
X-4501257Y-19470781D01*
X-4485990Y-19455223D01*
X-4457438Y-19452169D01*
X-4455583Y-19452167D01*
X-4415303Y-19443424D01*
X-4402890Y-19409002D01*
X-4402666Y-19399250D01*
X-4402666Y-19346333D01*
X-3683000Y-19346333D01*
X-3683000Y-19939000D01*
G37*
X-3683000Y-19939000D02*
X-3735916Y-19939000D01*
X-3773735Y-19945834D01*
X-3787569Y-19974886D01*
X-3788833Y-20002500D01*
X-3788833Y-20066000D01*
X-4402666Y-20066000D01*
X-4402666Y-19917833D01*
X-4169833Y-19917833D01*
X-4067936Y-19917346D01*
X-4001051Y-19914998D01*
X-3961860Y-19909457D01*
X-3943044Y-19899394D01*
X-3937286Y-19883478D01*
X-3937000Y-19875500D01*
X-3939679Y-19856973D01*
X-3952596Y-19844812D01*
X-3983068Y-19837687D01*
X-4038414Y-19834265D01*
X-4125952Y-19833219D01*
X-4169833Y-19833167D01*
X-4402666Y-19833167D01*
X-4402666Y-19769667D01*
X-4408362Y-19724285D01*
X-4432572Y-19707683D01*
X-4455583Y-19706167D01*
X-4484910Y-19703477D01*
X-4500744Y-19688783D01*
X-4507226Y-19652144D01*
X-4508499Y-19583618D01*
X-4508500Y-19579167D01*
X-4507379Y-19508781D01*
X-4501669Y-19473333D01*
X-4254500Y-19473333D01*
X-4254500Y-19685000D01*
X-3937000Y-19685000D01*
X-3937000Y-19473333D01*
X-4254500Y-19473333D01*
X-4501669Y-19473333D01*
X-4501257Y-19470781D01*
X-4485990Y-19455223D01*
X-4457438Y-19452169D01*
X-4455583Y-19452167D01*
X-4415303Y-19443424D01*
X-4402890Y-19409002D01*
X-4402666Y-19399250D01*
X-4402666Y-19346333D01*
X-3683000Y-19346333D01*
X-3683000Y-19939000D01*
G36*
X-11218333Y-19165011D02*
G01*
X-11208600Y-19204848D01*
X-11171559Y-19221628D01*
X-11160125Y-19223219D01*
X-11127137Y-19229962D01*
X-11108921Y-19247651D01*
X-11100075Y-19287031D01*
X-11095569Y-19351625D01*
X-11089221Y-19473333D01*
X-11153777Y-19473333D01*
X-11199644Y-19478810D01*
X-11216645Y-19502239D01*
X-11218333Y-19526250D01*
X-11211499Y-19564068D01*
X-11182447Y-19577903D01*
X-11154833Y-19579167D01*
X-11119684Y-19580830D01*
X-11100712Y-19592471D01*
X-11092929Y-19624068D01*
X-11091345Y-19685599D01*
X-11091333Y-19706167D01*
X-11092165Y-19776465D01*
X-11097985Y-19814409D01*
X-11113784Y-19829975D01*
X-11144549Y-19833143D01*
X-11154833Y-19833167D01*
X-11200215Y-19838862D01*
X-11216817Y-19863072D01*
X-11218333Y-19886083D01*
X-11218333Y-19939000D01*
X-11938000Y-19939000D01*
X-11938000Y-19600333D01*
X-11684000Y-19600333D01*
X-11684000Y-19812000D01*
X-11345333Y-19812000D01*
X-11345333Y-19600333D01*
X-11684000Y-19600333D01*
X-11938000Y-19600333D01*
X-11938000Y-19240500D01*
X-11684000Y-19240500D01*
X-11684000Y-19452167D01*
X-11345333Y-19452167D01*
X-11345333Y-19240500D01*
X-11684000Y-19240500D01*
X-11938000Y-19240500D01*
X-11938000Y-19113500D01*
X-11218333Y-19113500D01*
X-11218333Y-19165011D01*
G37*
X-11218333Y-19165011D02*
X-11208600Y-19204848D01*
X-11171559Y-19221628D01*
X-11160125Y-19223219D01*
X-11127137Y-19229962D01*
X-11108921Y-19247651D01*
X-11100075Y-19287031D01*
X-11095569Y-19351625D01*
X-11089221Y-19473333D01*
X-11153777Y-19473333D01*
X-11199644Y-19478810D01*
X-11216645Y-19502239D01*
X-11218333Y-19526250D01*
X-11211499Y-19564068D01*
X-11182447Y-19577903D01*
X-11154833Y-19579167D01*
X-11119684Y-19580830D01*
X-11100712Y-19592471D01*
X-11092929Y-19624068D01*
X-11091345Y-19685599D01*
X-11091333Y-19706167D01*
X-11092165Y-19776465D01*
X-11097985Y-19814409D01*
X-11113784Y-19829975D01*
X-11144549Y-19833143D01*
X-11154833Y-19833167D01*
X-11200215Y-19838862D01*
X-11216817Y-19863072D01*
X-11218333Y-19886083D01*
X-11218333Y-19939000D01*
X-11938000Y-19939000D01*
X-11938000Y-19600333D01*
X-11684000Y-19600333D01*
X-11684000Y-19812000D01*
X-11345333Y-19812000D01*
X-11345333Y-19600333D01*
X-11684000Y-19600333D01*
X-11938000Y-19600333D01*
X-11938000Y-19240500D01*
X-11684000Y-19240500D01*
X-11684000Y-19452167D01*
X-11345333Y-19452167D01*
X-11345333Y-19240500D01*
X-11684000Y-19240500D01*
X-11938000Y-19240500D01*
X-11938000Y-19113500D01*
X-11218333Y-19113500D01*
X-11218333Y-19165011D01*
G36*
X-10287000Y-19399250D02*
G01*
X-10278257Y-19439530D01*
X-10243835Y-19451943D01*
X-10234083Y-19452167D01*
X-10204756Y-19454856D01*
X-10188922Y-19469550D01*
X-10182440Y-19506189D01*
X-10181168Y-19574715D01*
X-10181166Y-19579167D01*
X-10181166Y-19706167D01*
X-10752666Y-19706167D01*
X-10752666Y-19812000D01*
X-10287000Y-19812000D01*
X-10287000Y-19939000D01*
X-10879666Y-19939000D01*
X-10879666Y-19886083D01*
X-10886501Y-19848265D01*
X-10915553Y-19834430D01*
X-10943166Y-19833167D01*
X-11006666Y-19833167D01*
X-11006666Y-19526250D01*
X-10752666Y-19526250D01*
X-10750688Y-19553165D01*
X-10738808Y-19568943D01*
X-10708109Y-19576554D01*
X-10649675Y-19578972D01*
X-10593916Y-19579167D01*
X-10513170Y-19578507D01*
X-10465838Y-19574547D01*
X-10443004Y-19564314D01*
X-10435750Y-19544836D01*
X-10435166Y-19526250D01*
X-10437145Y-19499334D01*
X-10449025Y-19483557D01*
X-10479724Y-19475946D01*
X-10538158Y-19473528D01*
X-10593916Y-19473333D01*
X-10674663Y-19473993D01*
X-10721995Y-19477953D01*
X-10744829Y-19488186D01*
X-10752083Y-19507664D01*
X-10752666Y-19526250D01*
X-11006666Y-19526250D01*
X-11006666Y-19452167D01*
X-10943166Y-19452167D01*
X-10897785Y-19446471D01*
X-10881183Y-19422261D01*
X-10879666Y-19399250D01*
X-10879666Y-19346333D01*
X-10287000Y-19346333D01*
X-10287000Y-19399250D01*
G37*
X-10287000Y-19399250D02*
X-10278257Y-19439530D01*
X-10243835Y-19451943D01*
X-10234083Y-19452167D01*
X-10204756Y-19454856D01*
X-10188922Y-19469550D01*
X-10182440Y-19506189D01*
X-10181168Y-19574715D01*
X-10181166Y-19579167D01*
X-10181166Y-19706167D01*
X-10752666Y-19706167D01*
X-10752666Y-19812000D01*
X-10287000Y-19812000D01*
X-10287000Y-19939000D01*
X-10879666Y-19939000D01*
X-10879666Y-19886083D01*
X-10886501Y-19848265D01*
X-10915553Y-19834430D01*
X-10943166Y-19833167D01*
X-11006666Y-19833167D01*
X-11006666Y-19526250D01*
X-10752666Y-19526250D01*
X-10750688Y-19553165D01*
X-10738808Y-19568943D01*
X-10708109Y-19576554D01*
X-10649675Y-19578972D01*
X-10593916Y-19579167D01*
X-10513170Y-19578507D01*
X-10465838Y-19574547D01*
X-10443004Y-19564314D01*
X-10435750Y-19544836D01*
X-10435166Y-19526250D01*
X-10437145Y-19499334D01*
X-10449025Y-19483557D01*
X-10479724Y-19475946D01*
X-10538158Y-19473528D01*
X-10593916Y-19473333D01*
X-10674663Y-19473993D01*
X-10721995Y-19477953D01*
X-10744829Y-19488186D01*
X-10752083Y-19507664D01*
X-10752666Y-19526250D01*
X-11006666Y-19526250D01*
X-11006666Y-19452167D01*
X-10943166Y-19452167D01*
X-10897785Y-19446471D01*
X-10881183Y-19422261D01*
X-10879666Y-19399250D01*
X-10879666Y-19346333D01*
X-10287000Y-19346333D01*
X-10287000Y-19399250D01*
G36*
X-9482666Y-19346333D02*
G01*
X-9366250Y-19346333D01*
X-9299696Y-19347399D01*
X-9265056Y-19354387D01*
X-9251908Y-19372980D01*
X-9249833Y-19408862D01*
X-9249833Y-19409833D01*
X-9251788Y-19446135D01*
X-9264599Y-19465030D01*
X-9298686Y-19472201D01*
X-9364470Y-19473333D01*
X-9482666Y-19473333D01*
X-9482666Y-19939000D01*
X-9736666Y-19939000D01*
X-9736666Y-19473333D01*
X-9853083Y-19473333D01*
X-9919637Y-19472267D01*
X-9954277Y-19465279D01*
X-9967425Y-19446686D01*
X-9969500Y-19410804D01*
X-9969500Y-19409833D01*
X-9967545Y-19373531D01*
X-9954734Y-19354636D01*
X-9920647Y-19347465D01*
X-9854863Y-19346333D01*
X-9736666Y-19346333D01*
X-9736666Y-19113500D01*
X-9482666Y-19113500D01*
X-9482666Y-19346333D01*
G37*
X-9482666Y-19346333D02*
X-9366250Y-19346333D01*
X-9299696Y-19347399D01*
X-9265056Y-19354387D01*
X-9251908Y-19372980D01*
X-9249833Y-19408862D01*
X-9249833Y-19409833D01*
X-9251788Y-19446135D01*
X-9264599Y-19465030D01*
X-9298686Y-19472201D01*
X-9364470Y-19473333D01*
X-9482666Y-19473333D01*
X-9482666Y-19939000D01*
X-9736666Y-19939000D01*
X-9736666Y-19473333D01*
X-9853083Y-19473333D01*
X-9919637Y-19472267D01*
X-9954277Y-19465279D01*
X-9967425Y-19446686D01*
X-9969500Y-19410804D01*
X-9969500Y-19409833D01*
X-9967545Y-19373531D01*
X-9954734Y-19354636D01*
X-9920647Y-19347465D01*
X-9854863Y-19346333D01*
X-9736666Y-19346333D01*
X-9736666Y-19113500D01*
X-9482666Y-19113500D01*
X-9482666Y-19346333D01*
G36*
X-8736541Y-19351044D02*
G01*
X-8618139Y-19353600D01*
X-8535447Y-19356642D01*
X-8481847Y-19361318D01*
X-8450720Y-19368775D01*
X-8435448Y-19380163D01*
X-8429413Y-19396629D01*
X-8428153Y-19404542D01*
X-8409333Y-19442694D01*
X-8369944Y-19452167D01*
X-8318500Y-19452167D01*
X-8318500Y-19939000D01*
X-9038166Y-19939000D01*
X-9038166Y-19886083D01*
X-9046909Y-19845803D01*
X-9081331Y-19833390D01*
X-9091083Y-19833167D01*
X-9126869Y-19827631D01*
X-9141518Y-19802724D01*
X-9144000Y-19759083D01*
X-8890000Y-19759083D01*
X-8888021Y-19785999D01*
X-8876141Y-19801776D01*
X-8845443Y-19809387D01*
X-8787008Y-19811805D01*
X-8731250Y-19812000D01*
X-8650503Y-19811340D01*
X-8603171Y-19807380D01*
X-8580337Y-19797147D01*
X-8573083Y-19777669D01*
X-8572500Y-19759083D01*
X-8574478Y-19732168D01*
X-8586358Y-19716390D01*
X-8617057Y-19708779D01*
X-8675491Y-19706361D01*
X-8731250Y-19706167D01*
X-8811997Y-19706826D01*
X-8859329Y-19710786D01*
X-8882163Y-19721019D01*
X-8889416Y-19740497D01*
X-8890000Y-19759083D01*
X-9144000Y-19759083D01*
X-9140046Y-19708984D01*
X-9122255Y-19688474D01*
X-9091083Y-19685000D01*
X-9050803Y-19676257D01*
X-9038390Y-19641835D01*
X-9038166Y-19632083D01*
X-9038166Y-19579167D01*
X-8572500Y-19579167D01*
X-8572500Y-19473333D01*
X-9038166Y-19473333D01*
X-9038166Y-19345171D01*
X-8736541Y-19351044D01*
G37*
X-8736541Y-19351044D02*
X-8618139Y-19353600D01*
X-8535447Y-19356642D01*
X-8481847Y-19361318D01*
X-8450720Y-19368775D01*
X-8435448Y-19380163D01*
X-8429413Y-19396629D01*
X-8428153Y-19404542D01*
X-8409333Y-19442694D01*
X-8369944Y-19452167D01*
X-8318500Y-19452167D01*
X-8318500Y-19939000D01*
X-9038166Y-19939000D01*
X-9038166Y-19886083D01*
X-9046909Y-19845803D01*
X-9081331Y-19833390D01*
X-9091083Y-19833167D01*
X-9126869Y-19827631D01*
X-9141518Y-19802724D01*
X-9144000Y-19759083D01*
X-8890000Y-19759083D01*
X-8888021Y-19785999D01*
X-8876141Y-19801776D01*
X-8845443Y-19809387D01*
X-8787008Y-19811805D01*
X-8731250Y-19812000D01*
X-8650503Y-19811340D01*
X-8603171Y-19807380D01*
X-8580337Y-19797147D01*
X-8573083Y-19777669D01*
X-8572500Y-19759083D01*
X-8574478Y-19732168D01*
X-8586358Y-19716390D01*
X-8617057Y-19708779D01*
X-8675491Y-19706361D01*
X-8731250Y-19706167D01*
X-8811997Y-19706826D01*
X-8859329Y-19710786D01*
X-8882163Y-19721019D01*
X-8889416Y-19740497D01*
X-8890000Y-19759083D01*
X-9144000Y-19759083D01*
X-9140046Y-19708984D01*
X-9122255Y-19688474D01*
X-9091083Y-19685000D01*
X-9050803Y-19676257D01*
X-9038390Y-19641835D01*
X-9038166Y-19632083D01*
X-9038166Y-19579167D01*
X-8572500Y-19579167D01*
X-8572500Y-19473333D01*
X-9038166Y-19473333D01*
X-9038166Y-19345171D01*
X-8736541Y-19351044D01*
G36*
X-7105082Y-19114666D02*
G01*
X-7067060Y-19120848D01*
X-7051508Y-19136073D01*
X-7048500Y-19164366D01*
X-7048500Y-19165011D01*
X-7038766Y-19204848D01*
X-7001726Y-19221628D01*
X-6990291Y-19223219D01*
X-6944956Y-19238379D01*
X-6926716Y-19278419D01*
X-6925386Y-19288125D01*
X-6911738Y-19331876D01*
X-6877332Y-19346022D01*
X-6867177Y-19346333D01*
X-6827867Y-19355418D01*
X-6815840Y-19390669D01*
X-6815666Y-19399250D01*
X-6806924Y-19439530D01*
X-6772502Y-19451943D01*
X-6762750Y-19452167D01*
X-6736505Y-19450362D01*
X-6720791Y-19439190D01*
X-6712907Y-19410014D01*
X-6710154Y-19354197D01*
X-6709833Y-19282833D01*
X-6709833Y-19113500D01*
X-6455833Y-19113500D01*
X-6455833Y-19939000D01*
X-6709833Y-19939000D01*
X-6709833Y-19822583D01*
X-6710899Y-19756030D01*
X-6717887Y-19721389D01*
X-6736480Y-19708241D01*
X-6772362Y-19706167D01*
X-6773333Y-19706167D01*
X-6818715Y-19700471D01*
X-6835317Y-19676261D01*
X-6836833Y-19653250D01*
X-6845576Y-19612969D01*
X-6879998Y-19600557D01*
X-6889750Y-19600333D01*
X-6927568Y-19593499D01*
X-6941403Y-19564447D01*
X-6942666Y-19536833D01*
X-6948362Y-19491451D01*
X-6972572Y-19474850D01*
X-6995583Y-19473333D01*
X-7048500Y-19473333D01*
X-7048500Y-19939000D01*
X-7302500Y-19939000D01*
X-7302500Y-19113500D01*
X-7175500Y-19113500D01*
X-7105082Y-19114666D01*
G37*
X-7105082Y-19114666D02*
X-7067060Y-19120848D01*
X-7051508Y-19136073D01*
X-7048500Y-19164366D01*
X-7048500Y-19165011D01*
X-7038766Y-19204848D01*
X-7001726Y-19221628D01*
X-6990291Y-19223219D01*
X-6944956Y-19238379D01*
X-6926716Y-19278419D01*
X-6925386Y-19288125D01*
X-6911738Y-19331876D01*
X-6877332Y-19346022D01*
X-6867177Y-19346333D01*
X-6827867Y-19355418D01*
X-6815840Y-19390669D01*
X-6815666Y-19399250D01*
X-6806924Y-19439530D01*
X-6772502Y-19451943D01*
X-6762750Y-19452167D01*
X-6736505Y-19450362D01*
X-6720791Y-19439190D01*
X-6712907Y-19410014D01*
X-6710154Y-19354197D01*
X-6709833Y-19282833D01*
X-6709833Y-19113500D01*
X-6455833Y-19113500D01*
X-6455833Y-19939000D01*
X-6709833Y-19939000D01*
X-6709833Y-19822583D01*
X-6710899Y-19756030D01*
X-6717887Y-19721389D01*
X-6736480Y-19708241D01*
X-6772362Y-19706167D01*
X-6773333Y-19706167D01*
X-6818715Y-19700471D01*
X-6835317Y-19676261D01*
X-6836833Y-19653250D01*
X-6845576Y-19612969D01*
X-6879998Y-19600557D01*
X-6889750Y-19600333D01*
X-6927568Y-19593499D01*
X-6941403Y-19564447D01*
X-6942666Y-19536833D01*
X-6948362Y-19491451D01*
X-6972572Y-19474850D01*
X-6995583Y-19473333D01*
X-7048500Y-19473333D01*
X-7048500Y-19939000D01*
X-7302500Y-19939000D01*
X-7302500Y-19113500D01*
X-7175500Y-19113500D01*
X-7105082Y-19114666D01*
G36*
X-5545666Y-19939000D02*
G01*
X-6244166Y-19939000D01*
X-6244166Y-19886083D01*
X-6251001Y-19848265D01*
X-6280053Y-19834430D01*
X-6307666Y-19833167D01*
X-6371166Y-19833167D01*
X-6371166Y-19346333D01*
X-6117166Y-19346333D01*
X-6117166Y-19812000D01*
X-5801099Y-19812000D01*
X-5795091Y-19584458D01*
X-5789083Y-19356917D01*
X-5667375Y-19350569D01*
X-5545666Y-19344221D01*
X-5545666Y-19939000D01*
G37*
X-5545666Y-19939000D02*
X-6244166Y-19939000D01*
X-6244166Y-19886083D01*
X-6251001Y-19848265D01*
X-6280053Y-19834430D01*
X-6307666Y-19833167D01*
X-6371166Y-19833167D01*
X-6371166Y-19346333D01*
X-6117166Y-19346333D01*
X-6117166Y-19812000D01*
X-5801099Y-19812000D01*
X-5795091Y-19584458D01*
X-5789083Y-19356917D01*
X-5667375Y-19350569D01*
X-5545666Y-19344221D01*
X-5545666Y-19939000D01*
G36*
X-2878666Y-19399250D02*
G01*
X-2871832Y-19437068D01*
X-2842780Y-19450903D01*
X-2815166Y-19452167D01*
X-2780017Y-19453830D01*
X-2761045Y-19465471D01*
X-2753262Y-19497068D01*
X-2751678Y-19558599D01*
X-2751666Y-19579167D01*
X-2751666Y-19706167D01*
X-3344333Y-19706167D01*
X-3344333Y-19812000D01*
X-2878666Y-19812000D01*
X-2878666Y-19939000D01*
X-3471333Y-19939000D01*
X-3471333Y-19886083D01*
X-3480076Y-19845803D01*
X-3514498Y-19833390D01*
X-3524250Y-19833167D01*
X-3549300Y-19831650D01*
X-3564853Y-19821668D01*
X-3573173Y-19795076D01*
X-3576522Y-19743726D01*
X-3577164Y-19659472D01*
X-3577166Y-19642667D01*
X-3576745Y-19552487D01*
X-3575447Y-19526250D01*
X-3344333Y-19526250D01*
X-3342529Y-19552494D01*
X-3331357Y-19568209D01*
X-3302181Y-19576093D01*
X-3246363Y-19578845D01*
X-3175000Y-19579167D01*
X-3091017Y-19578603D01*
X-3040731Y-19575111D01*
X-3015502Y-19565994D01*
X-3006694Y-19548551D01*
X-3005666Y-19526250D01*
X-3007471Y-19500005D01*
X-3018643Y-19484291D01*
X-3047819Y-19476407D01*
X-3103636Y-19473654D01*
X-3175000Y-19473333D01*
X-3258982Y-19473897D01*
X-3309269Y-19477388D01*
X-3334498Y-19486506D01*
X-3343306Y-19503949D01*
X-3344333Y-19526250D01*
X-3575447Y-19526250D01*
X-3573973Y-19496495D01*
X-3566586Y-19466543D01*
X-3552322Y-19454485D01*
X-3528918Y-19452176D01*
X-3524250Y-19452167D01*
X-3483969Y-19443424D01*
X-3471557Y-19409002D01*
X-3471333Y-19399250D01*
X-3471333Y-19346333D01*
X-2878666Y-19346333D01*
X-2878666Y-19399250D01*
G37*
X-2878666Y-19399250D02*
X-2871832Y-19437068D01*
X-2842780Y-19450903D01*
X-2815166Y-19452167D01*
X-2780017Y-19453830D01*
X-2761045Y-19465471D01*
X-2753262Y-19497068D01*
X-2751678Y-19558599D01*
X-2751666Y-19579167D01*
X-2751666Y-19706167D01*
X-3344333Y-19706167D01*
X-3344333Y-19812000D01*
X-2878666Y-19812000D01*
X-2878666Y-19939000D01*
X-3471333Y-19939000D01*
X-3471333Y-19886083D01*
X-3480076Y-19845803D01*
X-3514498Y-19833390D01*
X-3524250Y-19833167D01*
X-3549300Y-19831650D01*
X-3564853Y-19821668D01*
X-3573173Y-19795076D01*
X-3576522Y-19743726D01*
X-3577164Y-19659472D01*
X-3577166Y-19642667D01*
X-3576745Y-19552487D01*
X-3575447Y-19526250D01*
X-3344333Y-19526250D01*
X-3342529Y-19552494D01*
X-3331357Y-19568209D01*
X-3302181Y-19576093D01*
X-3246363Y-19578845D01*
X-3175000Y-19579167D01*
X-3091017Y-19578603D01*
X-3040731Y-19575111D01*
X-3015502Y-19565994D01*
X-3006694Y-19548551D01*
X-3005666Y-19526250D01*
X-3007471Y-19500005D01*
X-3018643Y-19484291D01*
X-3047819Y-19476407D01*
X-3103636Y-19473654D01*
X-3175000Y-19473333D01*
X-3258982Y-19473897D01*
X-3309269Y-19477388D01*
X-3334498Y-19486506D01*
X-3343306Y-19503949D01*
X-3344333Y-19526250D01*
X-3575447Y-19526250D01*
X-3573973Y-19496495D01*
X-3566586Y-19466543D01*
X-3552322Y-19454485D01*
X-3528918Y-19452176D01*
X-3524250Y-19452167D01*
X-3483969Y-19443424D01*
X-3471557Y-19409002D01*
X-3471333Y-19399250D01*
X-3471333Y-19346333D01*
X-2878666Y-19346333D01*
X-2878666Y-19399250D01*
G36*
X-2053166Y-19346333D02*
G01*
X-1936750Y-19346333D01*
X-1870196Y-19347399D01*
X-1835556Y-19354387D01*
X-1822408Y-19372980D01*
X-1820333Y-19408862D01*
X-1820333Y-19409833D01*
X-1822288Y-19446135D01*
X-1835099Y-19465030D01*
X-1869186Y-19472201D01*
X-1934970Y-19473333D01*
X-2053166Y-19473333D01*
X-2053166Y-19939000D01*
X-2307166Y-19939000D01*
X-2307166Y-19473333D01*
X-2423583Y-19473333D01*
X-2490137Y-19472267D01*
X-2524777Y-19465279D01*
X-2537925Y-19446686D01*
X-2540000Y-19410804D01*
X-2540000Y-19409833D01*
X-2538045Y-19373531D01*
X-2525234Y-19354636D01*
X-2491147Y-19347465D01*
X-2425363Y-19346333D01*
X-2307166Y-19346333D01*
X-2307166Y-19113500D01*
X-2053166Y-19113500D01*
X-2053166Y-19346333D01*
G37*
X-2053166Y-19346333D02*
X-1936750Y-19346333D01*
X-1870196Y-19347399D01*
X-1835556Y-19354387D01*
X-1822408Y-19372980D01*
X-1820333Y-19408862D01*
X-1820333Y-19409833D01*
X-1822288Y-19446135D01*
X-1835099Y-19465030D01*
X-1869186Y-19472201D01*
X-1934970Y-19473333D01*
X-2053166Y-19473333D01*
X-2053166Y-19939000D01*
X-2307166Y-19939000D01*
X-2307166Y-19473333D01*
X-2423583Y-19473333D01*
X-2490137Y-19472267D01*
X-2524777Y-19465279D01*
X-2537925Y-19446686D01*
X-2540000Y-19410804D01*
X-2540000Y-19409833D01*
X-2538045Y-19373531D01*
X-2525234Y-19354636D01*
X-2491147Y-19347465D01*
X-2425363Y-19346333D01*
X-2307166Y-19346333D01*
X-2307166Y-19113500D01*
X-2053166Y-19113500D01*
X-2053166Y-19346333D01*
D11*
X-8980000Y-17348000D03*
X-8980000Y-14148000D03*
X-13880000Y-17348000D03*
X-13880000Y-14148000D03*
D12*
X388400Y-11518900D03*
X9568400Y-11518900D03*
D13*
X-11500000Y20500000D03*
X11500000Y20500000D03*
D14*
X-16541000Y10500000D03*
X-16541000Y3500000D03*
D15*
X-13841000Y9500000D03*
X-13841000Y4500000D03*
D12*
X9801401Y-19646900D03*
X621401Y-19646900D03*
X-5707600Y-15582900D03*
X3472400Y-15582900D03*
X15664400Y-15582900D03*
X6484400Y-15582900D03*
D16*
X14779400Y7772400D03*
X17529400Y7772400D03*
D17*
X-16332000Y-9120000D03*
X-16332000Y-6120000D03*
M02*
