G04 #@! TF.GenerationSoftware,KiCad,Pcbnew,5.1.10-88a1d61d58~90~ubuntu20.04.1*
G04 #@! TF.CreationDate,2021-12-07T21:06:44-07:00*
G04 #@! TF.ProjectId,v1.0-Beta-WiFi-Nugget,76312e30-2d42-4657-9461-2d576946692d,rev?*
G04 #@! TF.SameCoordinates,Original*
G04 #@! TF.FileFunction,Legend,Top*
G04 #@! TF.FilePolarity,Positive*
%FSLAX46Y46*%
G04 Gerber Fmt 4.6, Leading zero omitted, Abs format (unit mm)*
G04 Created by KiCad (PCBNEW 5.1.10-88a1d61d58~90~ubuntu20.04.1) date 2021-12-07 21:06:44*
%MOMM*%
%LPD*%
G01*
G04 APERTURE LIST*
%ADD10C,0.120000*%
%ADD11C,0.100000*%
G04 APERTURE END LIST*
D10*
X-17250000Y16047000D02*
X-17250000Y-6953000D01*
X17250000Y16047000D02*
X17250000Y-6953000D01*
X17250000Y-6953000D02*
X-17250000Y-6953000D01*
X17250000Y16047000D02*
X-17250000Y16047000D01*
D11*
X-8930000Y-13248000D02*
X-13930000Y-13248000D01*
X-8930000Y-18248000D02*
X-8930000Y-13248000D01*
X-13930000Y-18248000D02*
X-8930000Y-18248000D01*
X-13930000Y-13248000D02*
X-13930000Y-18248000D01*
D10*
X-8940800Y-15199360D02*
X-11963400Y-18221960D01*
X1918400Y-13328900D02*
X1918400Y-9708900D01*
X8038400Y-13328900D02*
X1918400Y-13328900D01*
X8038400Y-9708900D02*
X8038400Y-13328900D01*
X1918400Y-9708900D02*
X8038400Y-9708900D01*
X2151401Y-17836900D02*
X8271401Y-17836900D01*
X8271401Y-17836900D02*
X8271401Y-21456900D01*
X8271401Y-21456900D02*
X2151401Y-21456900D01*
X2151401Y-21456900D02*
X2151401Y-17836900D01*
X-4177600Y-17392900D02*
X-4177600Y-13772900D01*
X1942400Y-17392900D02*
X-4177600Y-17392900D01*
X1942400Y-13772900D02*
X1942400Y-17392900D01*
X-4177600Y-13772900D02*
X1942400Y-13772900D01*
X8014400Y-13772900D02*
X14134400Y-13772900D01*
X14134400Y-13772900D02*
X14134400Y-17392900D01*
X14134400Y-17392900D02*
X8014400Y-17392900D01*
X8014400Y-17392900D02*
X8014400Y-13772900D01*
M02*
